Armada-Condensed_Black.ufo
<glyph name="exclam" format="1">
  <advance width="277"/>
  <unicode hex="0021"/>
  <outline>
    <contour>
      <point x="261" y="192" type="line"/>
      <point x="16" y="192" type="line"/>
      <point x="16" y="720" type="line"/>
      <point x="261" y="720" type="line"/>
    </contour>
    <contour>
      <point x="261" y="0" type="line"/>
      <point x="16" y="0" type="line"/>
      <point x="16" y="175" type="line"/>
      <point x="261" y="175" type="line"/>
    </contour>
  </outline>
</glyph>
<glyph name="quotedbl" format="1">
  <advance width="525"/>
  <unicode hex="0022"/>
  <outline>
    <contour>
      <point x="509" y="390" type="line"/>
      <point x="277" y="390" type="line"/>
      <point x="277" y="720" type="line"/>
      <point x="509" y="720" type="line"/>
    </contour>
    <contour>
      <point x="247" y="390" type="line"/>
      <point x="16" y="390" type="line"/>
      <point x="16" y="720" type="line"/>
      <point x="247" y="720" type="line"/>
    </contour>
  </outline>
</glyph>
<glyph name="numbersign" format="1">
  <advance width="559"/>
  <unicode hex="0023"/>
  <outline>
    <contour>
      <point x="546" y="160" type="line"/>
      <point x="515" y="160" type="line"/>
      <point x="515" y="0" type="line"/>
      <point x="295" y="0" type="line"/>
      <point x="295" y="160" type="line"/>
      <point x="261" y="160" type="line"/>
      <point x="261" y="0" type="line"/>
      <point x="41" y="0" type="line"/>
      <point x="41" y="160" type="line"/>
      <point x="10" y="160" type="line"/>
      <point x="10" y="303" type="line"/>
      <point x="41" y="303" type="line"/>
      <point x="41" y="418" type="line"/>
      <point x="10" y="418" type="line"/>
      <point x="10" y="560" type="line"/>
      <point x="41" y="560" type="line"/>
      <point x="41" y="720" type="line"/>
      <point x="261" y="720" type="line"/>
      <point x="261" y="560" type="line"/>
      <point x="295" y="560" type="line"/>
      <point x="295" y="720" type="line"/>
      <point x="515" y="720" type="line"/>
      <point x="515" y="560" type="line"/>
      <point x="546" y="560" type="line"/>
      <point x="546" y="418" type="line"/>
      <point x="515" y="418" type="line"/>
      <point x="515" y="303" type="line"/>
      <point x="546" y="303" type="line"/>
    </contour>
    <contour>
      <point x="298" y="289" type="line"/>
      <point x="298" y="431" type="line"/>
      <point x="258" y="431" type="line"/>
      <point x="258" y="289" type="line"/>
    </contour>
  </outline>
</glyph>
<glyph name="dollar" format="1">
  <advance width="552"/>
  <unicode hex="0024"/>
  <outline>
    <contour>
      <point x="536" y="34" type="line"/>
      <point x="495" y="19"/>
      <point x="449" y="8"/>
      <point x="401" y="2" type="curve"/>
      <point x="401" y="-72" type="line"/>
      <point x="153" y="-72" type="line"/>
      <point x="153" y="1" type="line"/>
      <point x="103" y="7"/>
      <point x="57" y="18"/>
      <point x="15" y="34" type="curve"/>
      <point x="15" y="267" type="line"/>
      <point x="256" y="267" type="line"/>
      <point x="256" y="136" type="line"/>
      <point x="263" y="135"/>
      <point x="269" y="134"/>
      <point x="276" y="134" type="curve" smooth="yes"/>
      <point x="282" y="134"/>
      <point x="288" y="135"/>
      <point x="295" y="136" type="curve"/>
      <point x="295" y="284" type="line"/>
      <point x="15" y="284" type="line"/>
      <point x="15" y="686" type="line"/>
      <point x="56" y="701"/>
      <point x="102" y="713"/>
      <point x="150" y="718" type="curve"/>
      <point x="150" y="785" type="line"/>
      <point x="398" y="785" type="line"/>
      <point x="398" y="719" type="line"/>
      <point x="448" y="713"/>
      <point x="494" y="702"/>
      <point x="536" y="686" type="curve"/>
      <point x="536" y="453" type="line"/>
      <point x="295" y="453" type="line"/>
      <point x="295" y="584" type="line"/>
      <point x="288" y="585"/>
      <point x="282" y="585"/>
      <point x="276" y="585" type="curve" smooth="yes"/>
      <point x="269" y="585"/>
      <point x="264" y="585"/>
      <point x="256" y="584" type="curve"/>
      <point x="256" y="436" type="line"/>
      <point x="536" y="436" type="line"/>
    </contour>
  </outline>
</glyph>
<glyph name="percent" format="1">
  <advance width="1096"/>
  <unicode hex="0025"/>
  <outline>
    <contour>
      <point x="1083" y="19" type="line"/>
      <point x="1020" y="0"/>
      <point x="946" y="-9"/>
      <point x="882" y="-9" type="curve" smooth="yes"/>
      <point x="819" y="-9"/>
      <point x="747" y="-1"/>
      <point x="682" y="19" type="curve"/>
      <point x="682" y="372" type="line"/>
      <point x="746" y="391"/>
      <point x="818" y="401"/>
      <point x="882" y="401" type="curve" smooth="yes"/>
      <point x="945" y="401"/>
      <point x="1018" y="392"/>
      <point x="1083" y="372" type="curve"/>
    </contour>
    <contour>
      <point x="727" y="720" type="line"/>
      <point x="603" y="0" type="line"/>
      <point x="368" y="0" type="line"/>
      <point x="492" y="720" type="line"/>
    </contour>
    <contour>
      <point x="413" y="349" type="line"/>
      <point x="350" y="330"/>
      <point x="277" y="320"/>
      <point x="213" y="320" type="curve" smooth="yes"/>
      <point x="150" y="320"/>
      <point x="77" y="329"/>
      <point x="13" y="349" type="curve"/>
      <point x="13" y="701" type="line"/>
      <point x="76" y="721"/>
      <point x="149" y="730"/>
      <point x="213" y="730" type="curve" smooth="yes"/>
      <point x="276" y="730"/>
      <point x="349" y="721"/>
      <point x="413" y="701" type="curve"/>
    </contour>
    <contour>
      <point x="897" y="103" type="curve"/>
      <point x="897" y="287" type="line"/>
      <point x="892" y="288"/>
      <point x="887" y="288"/>
      <point x="882" y="288" type="curve" smooth="yes"/>
      <point x="877" y="288"/>
      <point x="872" y="288"/>
      <point x="868" y="287" type="curve"/>
      <point x="868" y="103" type="line"/>
      <point x="872" y="102"/>
      <point x="877" y="101"/>
      <point x="882" y="101" type="curve" smooth="yes"/>
      <point x="887" y="101"/>
      <point x="892" y="102"/>
    </contour>
    <contour>
      <point x="227" y="432" type="curve"/>
      <point x="227" y="616" type="line"/>
      <point x="223" y="617"/>
      <point x="218" y="617"/>
      <point x="213" y="617" type="curve" smooth="yes"/>
      <point x="208" y="617"/>
      <point x="203" y="617"/>
      <point x="198" y="616" type="curve"/>
      <point x="198" y="432" type="line"/>
      <point x="203" y="431"/>
      <point x="208" y="431"/>
      <point x="213" y="431" type="curve" smooth="yes"/>
      <point x="218" y="431"/>
      <point x="223" y="431"/>
    </contour>
  </outline>
</glyph>
<glyph name="ampersand" format="1">
  <advance width="606"/>
  <unicode hex="0026"/>
  <outline>
    <contour>
      <point x="598" y="284" type="line"/>
      <point x="564" y="284" type="line"/>
      <point x="564" y="34" type="line"/>
      <point x="488" y="8"/>
      <point x="387" y="-5"/>
      <point x="290" y="-5" type="curve" smooth="yes"/>
      <point x="194" y="-5"/>
      <point x="90" y="9"/>
      <point x="15" y="35" type="curve"/>
      <point x="15" y="350" type="line"/>
      <point x="39" y="359"/>
      <point x="84" y="365"/>
      <point x="129" y="370" type="curve"/>
      <point x="84" y="374"/>
      <point x="40" y="381"/>
      <point x="16" y="389" type="curve"/>
      <point x="16" y="690" type="line"/>
      <point x="92" y="717"/>
      <point x="197" y="730"/>
      <point x="290" y="730" type="curve" smooth="yes"/>
      <point x="387" y="730"/>
      <point x="488" y="717"/>
      <point x="564" y="689" type="curve"/>
      <point x="564" y="450" type="line"/>
      <point x="309" y="450" type="line"/>
      <point x="309" y="585" type="line"/>
      <point x="302" y="586"/>
      <point x="296" y="587"/>
      <point x="289" y="587" type="curve" smooth="yes"/>
      <point x="283" y="587"/>
      <point x="277" y="586"/>
      <point x="270" y="584" type="curve"/>
      <point x="270" y="434" type="line"/>
      <point x="277" y="432"/>
      <point x="286" y="431"/>
      <point x="293" y="431" type="curve" smooth="yes"/>
      <point x="598" y="431" type="line"/>
    </contour>
    <contour>
      <point x="310" y="123" type="curve"/>
      <point x="310" y="303" type="line"/>
      <point x="309" y="303"/>
      <point x="290" y="303"/>
      <point x="290" y="303" type="curve" smooth="yes"/>
      <point x="282" y="303"/>
      <point x="277" y="303"/>
      <point x="270" y="301" type="curve"/>
      <point x="270" y="125" type="line"/>
      <point x="276" y="123"/>
      <point x="282" y="123"/>
      <point x="290" y="123" type="curve" smooth="yes"/>
      <point x="290" y="123"/>
      <point x="309" y="123"/>
    </contour>
  </outline>
</glyph>
<glyph name="parenleft" format="1">
  <advance width="334"/>
  <unicode hex="0028"/>
  <outline>
    <contour>
      <point x="319" y="-2" type="line"/>
      <point x="178" y="-2"/>
      <point x="100" y="10"/>
      <point x="15" y="43" type="curve"/>
      <point x="15" y="677" type="line"/>
      <point x="99" y="710"/>
      <point x="177" y="722"/>
      <point x="319" y="722" type="curve"/>
      <point x="319" y="546" type="line"/>
      <point x="295" y="546"/>
      <point x="272" y="545"/>
      <point x="256" y="543" type="curve"/>
      <point x="256" y="177" type="line"/>
      <point x="273" y="175"/>
      <point x="295" y="174"/>
      <point x="319" y="174" type="curve"/>
    </contour>
  </outline>
</glyph>
<glyph name="parenright" format="1">
  <advance width="334"/>
  <unicode hex="0029"/>
  <outline>
    <contour>
      <point x="318" y="43" type="line"/>
      <point x="234" y="10"/>
      <point x="156" y="-2"/>
      <point x="15" y="-2" type="curve"/>
      <point x="15" y="174" type="line"/>
      <point x="38" y="174"/>
      <point x="61" y="175"/>
      <point x="77" y="177" type="curve"/>
      <point x="77" y="543" type="line"/>
      <point x="61" y="545"/>
      <point x="38" y="546"/>
      <point x="15" y="546" type="curve"/>
      <point x="15" y="722" type="line"/>
      <point x="156" y="722"/>
      <point x="233" y="710"/>
      <point x="318" y="677" type="curve"/>
    </contour>
  </outline>
</glyph>
<glyph name="asterisk" format="1">
  <advance width="712"/>
  <unicode hex="002A"/>
  <outline>
    <contour>
      <point x="699" y="198" type="line"/>
      <point x="486" y="198" type="line"/>
      <point x="486" y="355" type="line"/>
      <point x="480" y="357"/>
      <point x="470" y="359"/>
      <point x="461" y="360" type="curve"/>
      <point x="461" y="128" type="line"/>
      <point x="251" y="128" type="line"/>
      <point x="251" y="361" type="line"/>
      <point x="241" y="359"/>
      <point x="231" y="357"/>
      <point x="224" y="355" type="curve"/>
      <point x="224" y="198" type="line"/>
      <point x="12" y="198" type="line"/>
      <point x="12" y="408" type="line"/>
      <point x="35" y="415"/>
      <point x="77" y="422"/>
      <point x="121" y="427" type="curve"/>
      <point x="78" y="431"/>
      <point x="35" y="437"/>
      <point x="12" y="445" type="curve"/>
      <point x="12" y="655" type="line"/>
      <point x="224" y="655" type="line"/>
      <point x="224" y="498" type="line"/>
      <point x="231" y="495"/>
      <point x="241" y="494"/>
      <point x="251" y="492" type="curve"/>
      <point x="251" y="722" type="line"/>
      <point x="461" y="722" type="line"/>
      <point x="461" y="492" type="line"/>
      <point x="470" y="493"/>
      <point x="480" y="495"/>
      <point x="486" y="498" type="curve"/>
      <point x="486" y="655" type="line"/>
      <point x="699" y="655" type="line"/>
      <point x="699" y="446" type="line"/>
      <point x="676" y="438"/>
      <point x="634" y="432"/>
      <point x="591" y="427" type="curve"/>
      <point x="634" y="422"/>
      <point x="676" y="416"/>
      <point x="699" y="408" type="curve"/>
    </contour>
  </outline>
</glyph>
<glyph name="plus" format="1">
  <advance width="397"/>
  <unicode hex="002B"/>
  <outline>
    <contour>
      <point x="388" y="287" type="line"/>
      <point x="300" y="287" type="line"/>
      <point x="300" y="190" type="line"/>
      <point x="96" y="190" type="line"/>
      <point x="96" y="287" type="line"/>
      <point x="9" y="287" type="line"/>
      <point x="9" y="454" type="line"/>
      <point x="96" y="454" type="line"/>
      <point x="96" y="551" type="line"/>
      <point x="300" y="551" type="line"/>
      <point x="300" y="454" type="line"/>
      <point x="388" y="454" type="line"/>
    </contour>
  </outline>
</glyph>
<glyph name="comma" format="1">
  <advance width="251"/>
  <unicode hex="002C"/>
  <outline>
    <contour>
      <point x="249" y="194" type="line"/>
      <point x="226" y="-65" type="line"/>
      <point x="-3" y="-65" type="line"/>
      <point x="19" y="194" type="line"/>
    </contour>
  </outline>
</glyph>
<glyph name="hyphen" format="1">
  <advance width="259"/>
  <unicode hex="002D"/>
  <unicode hex="2010"/>
  <unicode hex="2011"/>
  <outline>
    <contour>
      <point x="253" y="214" type="line"/>
      <point x="6" y="214" type="line"/>
      <point x="6" y="395" type="line"/>
      <point x="253" y="395" type="line"/>
    </contour>
  </outline>
</glyph>
<glyph name="period" format="1">
  <advance width="251"/>
  <unicode hex="002E"/>
  <outline>
    <contour>
      <point x="240" y="0" type="line"/>
      <point x="11" y="0" type="line"/>
      <point x="11" y="194" type="line"/>
      <point x="240" y="194" type="line"/>
    </contour>
  </outline>
</glyph>
<glyph name="slash" format="1">
  <advance width="394"/>
  <unicode hex="002F"/>
  <outline>
    <contour>
      <point x="386" y="720" type="line"/>
      <point x="268" y="0" type="line"/>
      <point x="6" y="0" type="line"/>
      <point x="125" y="720" type="line"/>
    </contour>
  </outline>
</glyph>
<glyph name="zero" format="1">
  <advance width="569"/>
  <unicode hex="0030"/>
  <outline>
    <contour>
      <point x="553" y="29" type="line"/>
      <point x="478" y="3"/>
      <point x="382" y="-10"/>
      <point x="284" y="-10" type="curve" smooth="yes"/>
      <point x="188" y="-10"/>
      <point x="91" y="3"/>
      <point x="15" y="29" type="curve"/>
      <point x="15" y="691" type="line"/>
      <point x="90" y="717"/>
      <point x="187" y="730"/>
      <point x="284" y="730" type="curve" smooth="yes"/>
      <point x="381" y="730"/>
      <point x="478" y="717"/>
      <point x="553" y="691" type="curve"/>
    </contour>
    <contour>
      <point x="302" y="146" type="curve"/>
      <point x="302" y="574" type="line"/>
      <point x="295" y="575"/>
      <point x="289" y="575"/>
      <point x="284" y="575" type="curve" smooth="yes"/>
      <point x="279" y="575"/>
      <point x="273" y="575"/>
      <point x="266" y="574" type="curve"/>
      <point x="266" y="146" type="line"/>
      <point x="273" y="145"/>
      <point x="279" y="145"/>
      <point x="284" y="145" type="curve" smooth="yes"/>
      <point x="289" y="145"/>
      <point x="295" y="145"/>
    </contour>
  </outline>
</glyph>
<glyph name="one" format="1">
  <advance width="363"/>
  <unicode hex="0031"/>
  <outline>
    <contour>
      <point x="353" y="0" type="line"/>
      <point x="11" y="0" type="line"/>
      <point x="11" y="177" type="line"/>
      <point x="57" y="177" type="line"/>
      <point x="57" y="543" type="line"/>
      <point x="13" y="543" type="line"/>
      <point x="13" y="720" type="line"/>
      <point x="308" y="720" type="line"/>
      <point x="308" y="177" type="line"/>
      <point x="353" y="177" type="line"/>
    </contour>
  </outline>
</glyph>
<glyph name="two" format="1">
  <advance width="546"/>
  <unicode hex="0032"/>
  <outline>
    <contour>
      <point x="536" y="0" type="line"/>
      <point x="8" y="0" type="line"/>
      <point x="8" y="235" type="line"/>
      <point x="288" y="447" type="line"/>
      <point x="288" y="578" type="line"/>
      <point x="281" y="579"/>
      <point x="276" y="579"/>
      <point x="270" y="579" type="curve" smooth="yes"/>
      <point x="262" y="579"/>
      <point x="256" y="579"/>
      <point x="249" y="578" type="curve"/>
      <point x="249" y="441" type="line"/>
      <point x="9" y="441" type="line"/>
      <point x="9" y="689" type="line"/>
      <point x="85" y="717"/>
      <point x="175" y="730"/>
      <point x="272" y="730" type="curve" smooth="yes"/>
      <point x="370" y="730"/>
      <point x="460" y="716"/>
      <point x="535" y="689" type="curve"/>
      <point x="535" y="342" type="line"/>
      <point x="302" y="179" type="line"/>
      <point x="302" y="177" type="line"/>
      <point x="536" y="177" type="line"/>
    </contour>
  </outline>
</glyph>
<glyph name="three" format="1">
  <advance width="560"/>
  <unicode hex="0033"/>
  <outline>
    <contour>
      <point x="545" y="31" type="line"/>
      <point x="469" y="4"/>
      <point x="375" y="-10"/>
      <point x="277" y="-10" type="curve" smooth="yes"/>
      <point x="180" y="-10"/>
      <point x="87" y="4"/>
      <point x="12" y="31" type="curve"/>
      <point x="12" y="269" type="line"/>
      <point x="259" y="269" type="line"/>
      <point x="259" y="141" type="line"/>
      <point x="266" y="140"/>
      <point x="271" y="140"/>
      <point x="279" y="140" type="curve" smooth="yes"/>
      <point x="285" y="140"/>
      <point x="291" y="140"/>
      <point x="298" y="141" type="curve"/>
      <point x="298" y="283" type="line"/>
      <point x="291" y="285"/>
      <point x="282" y="286"/>
      <point x="274" y="286" type="curve" smooth="yes"/>
      <point x="55" y="286" type="line"/>
      <point x="55" y="439" type="line"/>
      <point x="274" y="439" type="line" smooth="yes"/>
      <point x="282" y="439"/>
      <point x="290" y="440"/>
      <point x="298" y="442" type="curve"/>
      <point x="298" y="581" type="line"/>
      <point x="291" y="583"/>
      <point x="285" y="583"/>
      <point x="279" y="583" type="curve" smooth="yes"/>
      <point x="271" y="583"/>
      <point x="266" y="583"/>
      <point x="259" y="581" type="curve"/>
      <point x="259" y="456" type="line"/>
      <point x="12" y="456" type="line"/>
      <point x="12" y="689" type="line"/>
      <point x="88" y="717"/>
      <point x="181" y="730"/>
      <point x="277" y="730" type="curve" smooth="yes"/>
      <point x="375" y="730"/>
      <point x="469" y="716"/>
      <point x="545" y="689" type="curve"/>
      <point x="545" y="388" type="line"/>
      <point x="522" y="381"/>
      <point x="480" y="374"/>
      <point x="436" y="370" type="curve"/>
      <point x="479" y="365"/>
      <point x="522" y="359"/>
      <point x="545" y="351" type="curve"/>
    </contour>
  </outline>
</glyph>
<glyph name="four" format="1">
  <advance width="566"/>
  <unicode hex="0034"/>
  <outline>
    <contour>
      <point x="550" y="0" type="line"/>
      <point x="298" y="0" type="line"/>
      <point x="298" y="227" type="line"/>
      <point x="11" y="227" type="line"/>
      <point x="11" y="720" type="line"/>
      <point x="263" y="720" type="line"/>
      <point x="263" y="383" type="line"/>
      <point x="298" y="383" type="line"/>
      <point x="298" y="720" type="line"/>
      <point x="550" y="720" type="line"/>
    </contour>
  </outline>
</glyph>
<glyph name="five" format="1">
  <advance width="557"/>
  <unicode hex="0035"/>
  <outline>
    <contour>
      <point x="542" y="31" type="line"/>
      <point x="466" y="4"/>
      <point x="375" y="-10"/>
      <point x="278" y="-10" type="curve" smooth="yes"/>
      <point x="180" y="-10"/>
      <point x="90" y="4"/>
      <point x="15" y="31" type="curve"/>
      <point x="15" y="267" type="line"/>
      <point x="258" y="267" type="line"/>
      <point x="258" y="139" type="line"/>
      <point x="265" y="138"/>
      <point x="271" y="137"/>
      <point x="278" y="137" type="curve" smooth="yes"/>
      <point x="285" y="137"/>
      <point x="290" y="138"/>
      <point x="297" y="139" type="curve"/>
      <point x="297" y="281" type="line"/>
      <point x="290" y="283"/>
      <point x="283" y="284"/>
      <point x="274" y="284" type="curve" smooth="yes"/>
      <point x="15" y="284" type="line"/>
      <point x="15" y="720" type="line"/>
      <point x="541" y="720" type="line"/>
      <point x="541" y="549" type="line"/>
      <point x="232" y="549" type="line"/>
      <point x="232" y="461" type="line"/>
      <point x="236" y="461"/>
      <point x="270" y="461"/>
      <point x="278" y="461" type="curve" smooth="yes"/>
      <point x="377" y="461"/>
      <point x="472" y="452"/>
      <point x="542" y="433" type="curve"/>
    </contour>
  </outline>
</glyph>
<glyph name="six" format="1">
  <advance width="563"/>
  <unicode hex="0036"/>
  <outline>
    <contour>
      <point x="548" y="27" type="line"/>
      <point x="473" y="1"/>
      <point x="379" y="-12"/>
      <point x="281" y="-12" type="curve" smooth="yes"/>
      <point x="185" y="-12"/>
      <point x="91" y="1"/>
      <point x="15" y="27" type="curve"/>
      <point x="15" y="689" type="line"/>
      <point x="91" y="716"/>
      <point x="184" y="730"/>
      <point x="281" y="730" type="curve" smooth="yes"/>
      <point x="379" y="730"/>
      <point x="471" y="716"/>
      <point x="547" y="689" type="curve"/>
      <point x="547" y="453" type="line"/>
      <point x="300" y="453" type="line"/>
      <point x="300" y="579" type="line"/>
      <point x="293" y="580"/>
      <point x="287" y="580"/>
      <point x="280" y="580" type="curve" smooth="yes"/>
      <point x="274" y="580"/>
      <point x="268" y="580"/>
      <point x="261" y="579" type="curve"/>
      <point x="261" y="435" type="line"/>
      <point x="272" y="436"/>
      <point x="294" y="437"/>
      <point x="314" y="437" type="curve" smooth="yes"/>
      <point x="391" y="437"/>
      <point x="473" y="432"/>
      <point x="548" y="417" type="curve"/>
    </contour>
    <contour>
      <point x="301" y="123" type="curve"/>
      <point x="301" y="310" type="line"/>
      <point x="293" y="311"/>
      <point x="287" y="312"/>
      <point x="281" y="312" type="curve" smooth="yes"/>
      <point x="276" y="312"/>
      <point x="269" y="311"/>
      <point x="261" y="310" type="curve"/>
      <point x="261" y="123" type="line"/>
      <point x="269" y="122"/>
      <point x="276" y="121"/>
      <point x="281" y="121" type="curve" smooth="yes"/>
      <point x="287" y="121"/>
      <point x="293" y="122"/>
    </contour>
  </outline>
</glyph>
<glyph name="seven" format="1">
  <advance width="495"/>
  <unicode hex="0037"/>
  <outline>
    <contour>
      <point x="486" y="555" type="line"/>
      <point x="320" y="0" type="line"/>
      <point x="52" y="0" type="line"/>
      <point x="212" y="540" type="line"/>
      <point x="7" y="540" type="line"/>
      <point x="7" y="720" type="line"/>
      <point x="486" y="720" type="line"/>
    </contour>
  </outline>
</glyph>
<glyph name="eight" format="1">
  <advance width="565"/>
  <unicode hex="0038"/>
  <outline>
    <contour>
      <point x="553" y="29" type="line"/>
      <point x="478" y="3"/>
      <point x="382" y="-10"/>
      <point x="284" y="-10" type="curve" smooth="yes"/>
      <point x="186" y="-10"/>
      <point x="90" y="3"/>
      <point x="15" y="29" type="curve"/>
      <point x="15" y="350" type="line"/>
      <point x="39" y="359"/>
      <point x="84" y="366"/>
      <point x="129" y="370" type="curve"/>
      <point x="83" y="374"/>
      <point x="40" y="381"/>
      <point x="16" y="389" type="curve"/>
      <point x="16" y="691" type="line"/>
      <point x="91" y="717"/>
      <point x="187" y="730"/>
      <point x="284" y="730" type="curve" smooth="yes"/>
      <point x="381" y="730"/>
      <point x="477" y="717"/>
      <point x="553" y="691" type="curve"/>
      <point x="553" y="389" type="line"/>
      <point x="528" y="381"/>
      <point x="484" y="374"/>
      <point x="439" y="370" type="curve"/>
      <point x="484" y="366"/>
      <point x="529" y="359"/>
      <point x="553" y="350" type="curve"/>
    </contour>
    <contour>
      <point x="304" y="420" type="curve"/>
      <point x="304" y="596" type="line"/>
      <point x="297" y="597"/>
      <point x="289" y="598"/>
      <point x="284" y="598" type="curve" smooth="yes"/>
      <point x="279" y="598"/>
      <point x="271" y="597"/>
      <point x="264" y="596" type="curve"/>
      <point x="264" y="420" type="line"/>
      <point x="271" y="420"/>
      <point x="279" y="419"/>
      <point x="284" y="419" type="curve" smooth="yes"/>
      <point x="289" y="419"/>
      <point x="297" y="420"/>
    </contour>
    <contour>
      <point x="304" y="121" type="curve"/>
      <point x="304" y="302" type="line"/>
      <point x="297" y="303"/>
      <point x="289" y="303"/>
      <point x="284" y="303" type="curve" smooth="yes"/>
      <point x="279" y="303"/>
      <point x="271" y="303"/>
      <point x="264" y="302" type="curve"/>
      <point x="264" y="121" type="line"/>
      <point x="271" y="120"/>
      <point x="279" y="120"/>
      <point x="284" y="120" type="curve" smooth="yes"/>
      <point x="289" y="120"/>
      <point x="297" y="120"/>
    </contour>
  </outline>
</glyph>
<glyph name="nine" format="1">
  <advance width="563"/>
  <unicode hex="0039"/>
  <outline>
    <contour>
      <point x="548" y="31" type="line"/>
      <point x="471" y="4"/>
      <point x="378" y="-10"/>
      <point x="281" y="-10" type="curve" smooth="yes"/>
      <point x="184" y="-10"/>
      <point x="91" y="4"/>
      <point x="16" y="31" type="curve"/>
      <point x="16" y="267" type="line"/>
      <point x="263" y="267" type="line"/>
      <point x="263" y="141" type="line"/>
      <point x="269" y="140"/>
      <point x="275" y="140"/>
      <point x="282" y="140" type="curve" smooth="yes"/>
      <point x="289" y="140"/>
      <point x="294" y="140"/>
      <point x="301" y="141" type="curve"/>
      <point x="301" y="285" type="line"/>
      <point x="290" y="284"/>
      <point x="269" y="283"/>
      <point x="248" y="283" type="curve" smooth="yes"/>
      <point x="171" y="283"/>
      <point x="89" y="288"/>
      <point x="15" y="303" type="curve"/>
      <point x="15" y="691" type="line"/>
      <point x="90" y="717"/>
      <point x="184" y="730"/>
      <point x="281" y="730" type="curve" smooth="yes"/>
      <point x="378" y="730"/>
      <point x="471" y="717"/>
      <point x="548" y="691" type="curve"/>
    </contour>
    <contour>
      <point x="301" y="410" type="curve"/>
      <point x="301" y="595" type="line"/>
      <point x="293" y="596"/>
      <point x="287" y="596"/>
      <point x="281" y="596" type="curve" smooth="yes"/>
      <point x="276" y="596"/>
      <point x="269" y="596"/>
      <point x="261" y="595" type="curve"/>
      <point x="261" y="410" type="line"/>
      <point x="269" y="409"/>
      <point x="276" y="408"/>
      <point x="281" y="408" type="curve" smooth="yes"/>
      <point x="287" y="408"/>
      <point x="293" y="409"/>
    </contour>
  </outline>
</glyph>
<glyph name="colon" format="1">
  <advance width="256"/>
  <unicode hex="003A"/>
  <outline>
    <contour>
      <point x="243" y="297" type="line"/>
      <point x="13" y="297" type="line"/>
      <point x="13" y="480" type="line"/>
      <point x="243" y="480" type="line"/>
    </contour>
    <contour>
      <point x="243" y="0" type="line"/>
      <point x="13" y="0" type="line"/>
      <point x="13" y="182" type="line"/>
      <point x="243" y="182" type="line"/>
    </contour>
  </outline>
</glyph>
<glyph name="semicolon" format="1">
  <advance width="256"/>
  <unicode hex="003B"/>
  <outline>
    <contour>
      <point x="243" y="297" type="line"/>
      <point x="13" y="297" type="line"/>
      <point x="13" y="480" type="line"/>
      <point x="243" y="480" type="line"/>
    </contour>
    <contour>
      <point x="246" y="182" type="line"/>
      <point x="226" y="-65" type="line"/>
      <point x="-3" y="-65" type="line"/>
      <point x="17" y="182" type="line"/>
    </contour>
  </outline>
</glyph>
<glyph name="less" format="1">
  <advance width="323"/>
  <unicode hex="003C"/>
  <outline>
    <contour>
      <point x="309" y="60" type="line"/>
      <point x="9" y="250" type="line"/>
      <point x="9" y="470" type="line"/>
      <point x="309" y="660" type="line"/>
      <point x="309" y="429" type="line"/>
      <point x="189" y="360" type="line"/>
      <point x="309" y="292" type="line"/>
    </contour>
  </outline>
</glyph>
<glyph name="equal" format="1">
  <advance width="373"/>
  <unicode hex="003D"/>
  <outline>
    <contour>
      <point x="360" y="381" type="line"/>
      <point x="13" y="381" type="line"/>
      <point x="13" y="561" type="line"/>
      <point x="360" y="561" type="line"/>
    </contour>
    <contour>
      <point x="360" y="181" type="line"/>
      <point x="13" y="181" type="line"/>
      <point x="13" y="360" type="line"/>
      <point x="360" y="360" type="line"/>
    </contour>
  </outline>
</glyph>
<glyph name="greater" format="1">
  <advance width="323"/>
  <unicode hex="003E"/>
  <outline>
    <contour>
      <point x="315" y="250" type="line"/>
      <point x="14" y="60" type="line"/>
      <point x="14" y="292" type="line"/>
      <point x="135" y="360" type="line"/>
      <point x="14" y="429" type="line"/>
      <point x="14" y="660" type="line"/>
      <point x="315" y="470" type="line"/>
    </contour>
  </outline>
</glyph>
<glyph name="question" format="1">
  <advance width="546"/>
  <unicode hex="003F"/>
  <outline>
    <contour>
      <point x="535" y="314" type="line"/>
      <point x="395" y="282" type="line"/>
      <point x="395" y="192" type="line"/>
      <point x="150" y="192" type="line"/>
      <point x="150" y="411" type="line"/>
      <point x="288" y="443" type="line"/>
      <point x="288" y="578" type="line"/>
      <point x="281" y="579"/>
      <point x="276" y="579"/>
      <point x="270" y="579" type="curve" smooth="yes"/>
      <point x="263" y="579"/>
      <point x="256" y="579"/>
      <point x="250" y="578" type="curve"/>
      <point x="250" y="441" type="line"/>
      <point x="10" y="441" type="line"/>
      <point x="10" y="689" type="line"/>
      <point x="86" y="717"/>
      <point x="176" y="730"/>
      <point x="272" y="730" type="curve" smooth="yes"/>
      <point x="370" y="730"/>
      <point x="460" y="716"/>
      <point x="535" y="688" type="curve"/>
    </contour>
    <contour>
      <point x="395" y="0" type="line"/>
      <point x="150" y="0" type="line"/>
      <point x="150" y="175" type="line"/>
      <point x="395" y="175" type="line"/>
    </contour>
  </outline>
</glyph>
<glyph name="at" format="1">
  <advance width="676"/>
  <unicode hex="0040"/>
  <outline>
    <contour>
      <point x="660" y="36" type="line"/>
      <point x="574" y="4"/>
      <point x="454" y="-10"/>
      <point x="338" y="-10" type="curve" smooth="yes"/>
      <point x="221" y="-10"/>
      <point x="101" y="4"/>
      <point x="15" y="36" type="curve"/>
      <point x="15" y="684" type="line"/>
      <point x="101" y="716"/>
      <point x="221" y="730"/>
      <point x="338" y="730" type="curve" smooth="yes"/>
      <point x="454" y="730"/>
      <point x="574" y="716"/>
      <point x="660" y="684" type="curve"/>
      <point x="660" y="306" type="line"/>
      <point x="472" y="306" type="line"/>
      <point x="472" y="149" type="line"/>
      <point x="429" y="139"/>
      <point x="382" y="136"/>
      <point x="338" y="136" type="curve" smooth="yes"/>
      <point x="287" y="136"/>
      <point x="247" y="140"/>
      <point x="204" y="149" type="curve"/>
      <point x="204" y="572" type="line"/>
      <point x="246" y="580"/>
      <point x="286" y="584"/>
      <point x="338" y="584" type="curve" smooth="yes"/>
      <point x="388" y="584"/>
      <point x="428" y="580"/>
      <point x="472" y="572" type="curve"/>
      <point x="472" y="425" type="line"/>
      <point x="493" y="425" type="line"/>
      <point x="493" y="587" type="line"/>
      <point x="449" y="598"/>
      <point x="397" y="602"/>
      <point x="338" y="602" type="curve" smooth="yes"/>
      <point x="279" y="602"/>
      <point x="227" y="598"/>
      <point x="183" y="587" type="curve"/>
      <point x="183" y="133" type="line"/>
      <point x="227" y="122"/>
      <point x="279" y="118"/>
      <point x="338" y="118" type="curve" smooth="yes"/>
      <point x="397" y="118"/>
      <point x="449" y="122"/>
      <point x="493" y="133" type="curve"/>
      <point x="493" y="288" type="line"/>
      <point x="660" y="288" type="line"/>
    </contour>
    <contour>
      <point x="348" y="237" type="curve"/>
      <point x="348" y="486" type="line"/>
      <point x="345" y="487"/>
      <point x="341" y="487"/>
      <point x="338" y="487" type="curve" smooth="yes"/>
      <point x="334" y="487"/>
      <point x="330" y="487"/>
      <point x="327" y="486" type="curve"/>
      <point x="327" y="237" type="line"/>
      <point x="330" y="236"/>
      <point x="334" y="236"/>
      <point x="338" y="236" type="curve" smooth="yes"/>
      <point x="341" y="236"/>
      <point x="345" y="236"/>
    </contour>
  </outline>
</glyph>
<glyph name="A" format="1">
  <advance width="581"/>
  <unicode hex="0041"/>
  <outline>
    <contour>
      <point x="565" y="0" type="line"/>
      <point x="310" y="0" type="line"/>
      <point x="310" y="224" type="line"/>
      <point x="270" y="224" type="line"/>
      <point x="270" y="0" type="line"/>
      <point x="16" y="0" type="line"/>
      <point x="16" y="689" type="line"/>
      <point x="91" y="716"/>
      <point x="194" y="730"/>
      <point x="291" y="730" type="curve" smooth="yes"/>
      <point x="387" y="730"/>
      <point x="489" y="717"/>
      <point x="565" y="689" type="curve"/>
    </contour>
    <contour>
      <point x="310" y="368" type="line"/>
      <point x="310" y="584" type="line"/>
      <point x="304" y="586"/>
      <point x="297" y="586"/>
      <point x="290" y="586" type="curve" smooth="yes"/>
      <point x="284" y="586"/>
      <point x="277" y="586"/>
      <point x="270" y="584" type="curve"/>
      <point x="270" y="368" type="line"/>
    </contour>
  </outline>
</glyph>
<glyph name="B" format="1">
  <advance width="580"/>
  <unicode hex="0042"/>
  <outline>
    <contour>
      <point x="565" y="40" type="line"/>
      <point x="494" y="15"/>
      <point x="393" y="0"/>
      <point x="291" y="0" type="curve" smooth="yes"/>
      <point x="16" y="0" type="line"/>
      <point x="16" y="720" type="line"/>
      <point x="291" y="720" type="line" smooth="yes"/>
      <point x="390" y="720"/>
      <point x="492" y="706"/>
      <point x="564" y="680" type="curve"/>
      <point x="564" y="389" type="line"/>
      <point x="540" y="381"/>
      <point x="496" y="374"/>
      <point x="451" y="370" type="curve"/>
      <point x="496" y="365"/>
      <point x="541" y="359"/>
      <point x="565" y="350" type="curve"/>
    </contour>
    <contour>
      <point x="310" y="422" type="curve"/>
      <point x="310" y="593" type="line"/>
      <point x="304" y="595"/>
      <point x="298" y="595"/>
      <point x="290" y="595" type="curve" smooth="yes"/>
      <point x="290" y="595"/>
      <point x="271" y="595"/>
      <point x="270" y="595" type="curve"/>
      <point x="270" y="419" type="line"/>
      <point x="271" y="419"/>
      <point x="290" y="419"/>
      <point x="290" y="419" type="curve" smooth="yes"/>
      <point x="298" y="419"/>
      <point x="304" y="420"/>
    </contour>
    <contour>
      <point x="310" y="125" type="curve"/>
      <point x="310" y="301" type="line"/>
      <point x="304" y="303"/>
      <point x="298" y="303"/>
      <point x="290" y="303" type="curve" smooth="yes"/>
      <point x="290" y="303"/>
      <point x="271" y="303"/>
      <point x="270" y="303" type="curve"/>
      <point x="270" y="122" type="line"/>
      <point x="271" y="122"/>
      <point x="290" y="122"/>
      <point x="290" y="122" type="curve" smooth="yes"/>
      <point x="298" y="122"/>
      <point x="304" y="123"/>
    </contour>
  </outline>
</glyph>
<glyph name="D" format="1">
  <advance width="580"/>
  <unicode hex="0044"/>
  <outline>
    <contour>
      <point x="565" y="50" type="line"/>
      <point x="487" y="16"/>
      <point x="386" y="0"/>
      <point x="291" y="0" type="curve" smooth="yes"/>
      <point x="16" y="0" type="line"/>
      <point x="16" y="720" type="line"/>
      <point x="291" y="720" type="line" smooth="yes"/>
      <point x="385" y="720"/>
      <point x="486" y="705"/>
      <point x="565" y="670" type="curve"/>
    </contour>
    <contour>
      <point x="310" y="151" type="curve"/>
      <point x="310" y="569" type="line"/>
      <point x="304" y="571"/>
      <point x="297" y="572"/>
      <point x="290" y="572" type="curve" smooth="yes"/>
      <point x="289" y="572"/>
      <point x="272" y="572"/>
      <point x="271" y="572" type="curve"/>
      <point x="271" y="148" type="line"/>
      <point x="272" y="148"/>
      <point x="289" y="148"/>
      <point x="290" y="148" type="curve" smooth="yes"/>
      <point x="297" y="148"/>
      <point x="304" y="149"/>
    </contour>
  </outline>
</glyph>
<glyph name="G" format="1">
  <advance width="580"/>
  <unicode hex="0047"/>
  <outline>
    <contour>
      <point x="564" y="31" type="line"/>
      <point x="489" y="4"/>
      <point x="388" y="-9"/>
      <point x="290" y="-10" type="curve" smooth="yes"/>
      <point x="194" y="-10"/>
      <point x="91" y="4"/>
      <point x="15" y="31" type="curve"/>
      <point x="15" y="689" type="line"/>
      <point x="90" y="716"/>
      <point x="193" y="730"/>
      <point x="290" y="730" type="curve" smooth="yes"/>
      <point x="387" y="730"/>
      <point x="488" y="717"/>
      <point x="564" y="689" type="curve"/>
      <point x="564" y="448" type="line"/>
      <point x="309" y="448" type="line"/>
      <point x="309" y="581" type="line"/>
      <point x="302" y="583"/>
      <point x="296" y="583"/>
      <point x="290" y="583" type="curve" smooth="yes"/>
      <point x="283" y="583"/>
      <point x="278" y="583"/>
      <point x="270" y="581" type="curve"/>
      <point x="270" y="139" type="line"/>
      <point x="277" y="138"/>
      <point x="287" y="137"/>
      <point x="295" y="137" type="curve" smooth="yes"/>
      <point x="303" y="137"/>
      <point x="314" y="138"/>
      <point x="320" y="139" type="curve"/>
      <point x="320" y="279" type="line"/>
      <point x="293" y="279" type="line"/>
      <point x="293" y="431" type="line"/>
      <point x="564" y="431" type="line"/>
    </contour>
  </outline>
</glyph>
<glyph name="H" format="1">
  <advance width="581"/>
  <unicode hex="0048"/>
  <outline>
    <contour>
      <point x="565" y="0" type="line"/>
      <point x="308" y="0" type="line"/>
      <point x="308" y="291" type="line"/>
      <point x="273" y="291" type="line"/>
      <point x="273" y="0" type="line"/>
      <point x="16" y="0" type="line"/>
      <point x="16" y="720" type="line"/>
      <point x="273" y="720" type="line"/>
      <point x="273" y="448" type="line"/>
      <point x="308" y="448" type="line"/>
      <point x="308" y="720" type="line"/>
      <point x="565" y="720" type="line"/>
    </contour>
  </outline>
</glyph>
<glyph name="J" format="1">
  <advance width="385"/>
  <unicode hex="004A"/>
  <outline>
    <contour>
      <point x="369" y="46" type="line"/>
      <point x="298" y="16"/>
      <point x="197" y="0"/>
      <point x="95" y="0" type="curve" smooth="yes"/>
      <point x="10" y="0" type="line"/>
      <point x="10" y="182" type="line"/>
      <point x="82" y="182" type="line" smooth="yes"/>
      <point x="94" y="182"/>
      <point x="106" y="182"/>
      <point x="114" y="184" type="curve"/>
      <point x="114" y="720" type="line"/>
      <point x="369" y="720" type="line"/>
    </contour>
  </outline>
</glyph>
<glyph name="K" format="1">
  <advance width="580"/>
  <unicode hex="004B"/>
  <outline>
    <contour>
      <point x="565" y="0" type="line"/>
      <point x="308" y="0" type="line"/>
      <point x="308" y="289" type="line"/>
      <point x="302" y="291"/>
      <point x="296" y="292"/>
      <point x="288" y="292" type="curve" smooth="yes"/>
      <point x="273" y="292" type="line"/>
      <point x="273" y="0" type="line"/>
      <point x="16" y="0" type="line"/>
      <point x="16" y="720" type="line"/>
      <point x="273" y="720" type="line"/>
      <point x="273" y="446" type="line"/>
      <point x="288" y="446" type="line" smooth="yes"/>
      <point x="296" y="446"/>
      <point x="302" y="447"/>
      <point x="308" y="449" type="curve"/>
      <point x="308" y="720" type="line"/>
      <point x="564" y="720" type="line"/>
      <point x="564" y="389" type="line"/>
      <point x="540" y="381"/>
      <point x="496" y="374"/>
      <point x="451" y="370" type="curve"/>
      <point x="496" y="365"/>
      <point x="541" y="359"/>
      <point x="565" y="350" type="curve"/>
    </contour>
  </outline>
</glyph>
<glyph name="L" format="1">
  <advance width="422"/>
  <unicode hex="004C"/>
  <outline>
    <contour>
      <point x="411" y="0" type="line"/>
      <point x="16" y="0" type="line"/>
      <point x="16" y="720" type="line"/>
      <point x="273" y="720" type="line"/>
      <point x="273" y="182" type="line"/>
      <point x="411" y="182" type="line"/>
    </contour>
  </outline>
</glyph>
<glyph name="M" format="1">
  <advance width="845"/>
  <unicode hex="004D"/>
  <outline>
    <contour>
      <point x="829" y="0" type="line"/>
      <point x="582" y="0" type="line"/>
      <point x="582" y="576" type="line"/>
      <point x="575" y="577"/>
      <point x="562" y="578"/>
      <point x="546" y="578" type="curve"/>
      <point x="546" y="0" type="line"/>
      <point x="299" y="0" type="line"/>
      <point x="299" y="578" type="line"/>
      <point x="283" y="578"/>
      <point x="270" y="577"/>
      <point x="263" y="576" type="curve"/>
      <point x="263" y="0" type="line"/>
      <point x="16" y="0" type="line"/>
      <point x="16" y="689" type="line"/>
      <point x="128" y="720"/>
      <point x="266" y="732"/>
      <point x="422" y="732" type="curve" smooth="yes"/>
      <point x="579" y="732"/>
      <point x="717" y="721"/>
      <point x="829" y="689" type="curve"/>
    </contour>
  </outline>
</glyph>
<glyph name="N" format="1">
  <advance width="581"/>
  <unicode hex="004E"/>
  <outline>
    <contour>
      <point x="565" y="0" type="line"/>
      <point x="308" y="0" type="line"/>
      <point x="308" y="574" type="line"/>
      <point x="302" y="575"/>
      <point x="296" y="575"/>
      <point x="290" y="575" type="curve" smooth="yes"/>
      <point x="284" y="575"/>
      <point x="279" y="575"/>
      <point x="273" y="574" type="curve"/>
      <point x="273" y="0" type="line"/>
      <point x="16" y="0" type="line"/>
      <point x="16" y="689" type="line"/>
      <point x="91" y="716"/>
      <point x="194" y="730"/>
      <point x="291" y="730" type="curve" smooth="yes"/>
      <point x="387" y="730"/>
      <point x="489" y="717"/>
      <point x="565" y="689" type="curve"/>
    </contour>
  </outline>
</glyph>
<glyph name="O" format="1">
  <advance width="581"/>
  <unicode hex="004F"/>
  <outline>
    <contour>
      <point x="564" y="31" type="line"/>
      <point x="489" y="4"/>
      <point x="388" y="-9"/>
      <point x="290" y="-10" type="curve" smooth="yes"/>
      <point x="194" y="-10"/>
      <point x="91" y="4"/>
      <point x="15" y="31" type="curve"/>
      <point x="15" y="689" type="line"/>
      <point x="90" y="716"/>
      <point x="193" y="730"/>
      <point x="290" y="730" type="curve" smooth="yes"/>
      <point x="387" y="730"/>
      <point x="488" y="717"/>
      <point x="564" y="689" type="curve"/>
    </contour>
    <contour>
      <point x="309" y="146" type="curve"/>
      <point x="309" y="574" type="line"/>
      <point x="302" y="575"/>
      <point x="296" y="575"/>
      <point x="290" y="575" type="curve" smooth="yes"/>
      <point x="283" y="575"/>
      <point x="277" y="575"/>
      <point x="270" y="574" type="curve"/>
      <point x="270" y="146" type="line"/>
      <point x="277" y="145"/>
      <point x="283" y="145"/>
      <point x="290" y="145" type="curve" smooth="yes"/>
      <point x="296" y="145"/>
      <point x="302" y="145"/>
    </contour>
  </outline>
</glyph>
<glyph name="P" format="1">
  <advance width="574"/>
  <unicode hex="0050"/>
  <outline>
    <contour>
      <point x="565" y="269" type="line"/>
      <point x="494" y="240"/>
      <point x="394" y="223"/>
      <point x="291" y="223" type="curve" smooth="yes"/>
      <point x="273" y="223" type="line"/>
      <point x="273" y="0" type="line"/>
      <point x="16" y="0" type="line"/>
      <point x="16" y="720" type="line"/>
      <point x="291" y="720" type="line" smooth="yes"/>
      <point x="393" y="720"/>
      <point x="493" y="704"/>
      <point x="565" y="675" type="curve"/>
    </contour>
    <contour>
      <point x="310" y="365" type="curve"/>
      <point x="310" y="578" type="line"/>
      <point x="304" y="580"/>
      <point x="298" y="581"/>
      <point x="290" y="581" type="curve" smooth="yes"/>
      <point x="290" y="581"/>
      <point x="271" y="581"/>
      <point x="270" y="581" type="curve"/>
      <point x="270" y="362" type="line"/>
      <point x="271" y="362"/>
      <point x="290" y="362"/>
      <point x="290" y="362" type="curve" smooth="yes"/>
      <point x="298" y="362"/>
      <point x="304" y="363"/>
    </contour>
  </outline>
</glyph>
<glyph name="Q" format="1">
  <advance width="581"/>
  <unicode hex="0051"/>
  <outline>
    <contour>
      <point x="564" y="31" type="line"/>
      <point x="522" y="15"/>
      <point x="469" y="4"/>
      <point x="414" y="-1" type="curve"/>
      <point x="414" y="-74" type="line"/>
      <point x="165" y="-74" type="line"/>
      <point x="165" y="-1" type="line"/>
      <point x="111" y="4"/>
      <point x="58" y="15"/>
      <point x="15" y="31" type="curve"/>
      <point x="15" y="689" type="line"/>
      <point x="90" y="716"/>
      <point x="193" y="730"/>
      <point x="290" y="730" type="curve" smooth="yes"/>
      <point x="387" y="730"/>
      <point x="488" y="717"/>
      <point x="564" y="689" type="curve"/>
    </contour>
    <contour>
      <point x="309" y="145" type="curve"/>
      <point x="309" y="574" type="line"/>
      <point x="302" y="575"/>
      <point x="296" y="575"/>
      <point x="290" y="575" type="curve" smooth="yes"/>
      <point x="283" y="575"/>
      <point x="277" y="575"/>
      <point x="270" y="574" type="curve"/>
      <point x="270" y="145" type="line"/>
      <point x="277" y="144"/>
      <point x="283" y="143"/>
      <point x="290" y="143" type="curve" smooth="yes"/>
      <point x="296" y="143"/>
      <point x="302" y="144"/>
    </contour>
  </outline>
</glyph>
<glyph name="R" format="1">
  <advance width="580"/>
  <unicode hex="0052"/>
  <outline>
    <contour>
      <point x="565" y="0" type="line"/>
      <point x="308" y="0" type="line"/>
      <point x="308" y="271" type="line"/>
      <point x="301" y="273"/>
      <point x="296" y="274"/>
      <point x="288" y="274" type="curve" smooth="yes"/>
      <point x="273" y="274" type="line"/>
      <point x="273" y="0" type="line"/>
      <point x="16" y="0" type="line"/>
      <point x="16" y="720" type="line"/>
      <point x="291" y="720" type="line" smooth="yes"/>
      <point x="393" y="720"/>
      <point x="492" y="705"/>
      <point x="564" y="677" type="curve"/>
      <point x="564" y="374" type="line"/>
      <point x="540" y="367"/>
      <point x="496" y="360"/>
      <point x="451" y="355" type="curve"/>
      <point x="496" y="350"/>
      <point x="541" y="344"/>
      <point x="565" y="335" type="curve"/>
    </contour>
    <contour>
      <point x="310" y="405" type="curve"/>
      <point x="310" y="590" type="line"/>
      <point x="304" y="592"/>
      <point x="298" y="593"/>
      <point x="290" y="593" type="curve" smooth="yes"/>
      <point x="290" y="593"/>
      <point x="271" y="593"/>
      <point x="270" y="593" type="curve"/>
      <point x="270" y="402" type="line"/>
      <point x="271" y="402"/>
      <point x="290" y="402"/>
      <point x="290" y="402" type="curve" smooth="yes"/>
      <point x="298" y="402"/>
      <point x="305" y="403"/>
    </contour>
  </outline>
</glyph>
<glyph name="T" format="1">
  <advance width="488"/>
  <unicode hex="0054"/>
  <outline>
    <contour>
      <point x="478" y="538" type="line"/>
      <point x="373" y="538" type="line"/>
      <point x="373" y="0" type="line"/>
      <point x="116" y="0" type="line"/>
      <point x="116" y="538" type="line"/>
      <point x="10" y="538" type="line"/>
      <point x="10" y="720" type="line"/>
      <point x="478" y="720" type="line"/>
    </contour>
  </outline>
</glyph>
<glyph name="U" format="1">
  <advance width="581"/>
  <unicode hex="0055"/>
  <outline>
    <contour>
      <point x="565" y="31" type="line"/>
      <point x="489" y="3"/>
      <point x="387" y="-10"/>
      <point x="291" y="-10" type="curve" smooth="yes"/>
      <point x="194" y="-10"/>
      <point x="91" y="4"/>
      <point x="16" y="31" type="curve"/>
      <point x="16" y="720" type="line"/>
      <point x="273" y="720" type="line"/>
      <point x="273" y="146" type="line"/>
      <point x="279" y="145"/>
      <point x="284" y="145"/>
      <point x="290" y="145" type="curve" smooth="yes"/>
      <point x="296" y="145"/>
      <point x="302" y="145"/>
      <point x="308" y="146" type="curve"/>
      <point x="308" y="720" type="line"/>
      <point x="565" y="720" type="line"/>
    </contour>
  </outline>
</glyph>
<glyph name="V" format="1">
  <advance width="572"/>
  <unicode hex="0056"/>
  <outline>
    <contour>
      <point x="564" y="299" type="line" smooth="yes"/>
      <point x="564" y="155"/>
      <point x="515" y="80"/>
      <point x="422" y="-2" type="curve"/>
      <point x="158" y="-2" type="line"/>
      <point x="65" y="80"/>
      <point x="15" y="154"/>
      <point x="15" y="299" type="curve" smooth="yes"/>
      <point x="15" y="720" type="line"/>
      <point x="272" y="720" type="line"/>
      <point x="272" y="300" type="line" smooth="yes"/>
      <point x="272" y="199"/>
      <point x="276" y="173"/>
      <point x="290" y="137" type="curve"/>
      <point x="303" y="173"/>
      <point x="307" y="197"/>
      <point x="307" y="300" type="curve" smooth="yes"/>
      <point x="307" y="720" type="line"/>
      <point x="564" y="720" type="line"/>
    </contour>
  </outline>
</glyph>
<glyph name="W" format="1">
  <advance width="845"/>
  <unicode hex="0057"/>
  <outline>
    <contour>
      <point x="829" y="31" type="line"/>
      <point x="717" y="0"/>
      <point x="579" y="-12"/>
      <point x="422" y="-12" type="curve" smooth="yes"/>
      <point x="266" y="-12"/>
      <point x="128" y="0"/>
      <point x="16" y="31" type="curve"/>
      <point x="16" y="720" type="line"/>
      <point x="263" y="720" type="line"/>
      <point x="263" y="144" type="line"/>
      <point x="270" y="143"/>
      <point x="283" y="142"/>
      <point x="299" y="142" type="curve"/>
      <point x="299" y="720" type="line"/>
      <point x="546" y="720" type="line"/>
      <point x="546" y="142" type="line"/>
      <point x="562" y="143"/>
      <point x="575" y="143"/>
      <point x="582" y="144" type="curve"/>
      <point x="582" y="720" type="line"/>
      <point x="829" y="720" type="line"/>
    </contour>
  </outline>
</glyph>
<glyph name="X" format="1">
  <advance width="580"/>
  <unicode hex="0058"/>
  <outline>
    <contour>
      <point x="564" y="0" type="line"/>
      <point x="307" y="0" type="line"/>
      <point x="307" y="290" type="line"/>
      <point x="302" y="291"/>
      <point x="295" y="292"/>
      <point x="290" y="292" type="curve" smooth="yes"/>
      <point x="284" y="292"/>
      <point x="278" y="292"/>
      <point x="272" y="290" type="curve"/>
      <point x="272" y="0" type="line"/>
      <point x="15" y="0" type="line"/>
      <point x="15" y="350" type="line"/>
      <point x="38" y="359"/>
      <point x="84" y="365"/>
      <point x="129" y="370" type="curve"/>
      <point x="84" y="374"/>
      <point x="40" y="381"/>
      <point x="16" y="389" type="curve"/>
      <point x="16" y="720" type="line"/>
      <point x="272" y="720" type="line"/>
      <point x="272" y="448" type="line"/>
      <point x="278" y="447"/>
      <point x="284" y="446"/>
      <point x="290" y="446" type="curve" smooth="yes"/>
      <point x="295" y="446"/>
      <point x="302" y="447"/>
      <point x="307" y="448" type="curve"/>
      <point x="307" y="720" type="line"/>
      <point x="564" y="720" type="line"/>
      <point x="564" y="389" type="line"/>
      <point x="539" y="381"/>
      <point x="496" y="374"/>
      <point x="450" y="370" type="curve"/>
      <point x="495" y="365"/>
      <point x="540" y="359"/>
      <point x="564" y="350" type="curve"/>
    </contour>
  </outline>
</glyph>
<glyph name="Y" format="1">
  <advance width="580"/>
  <unicode hex="0059"/>
  <outline>
    <contour>
      <point x="564" y="252" type="line"/>
      <point x="522" y="237"/>
      <point x="471" y="225"/>
      <point x="419" y="219" type="curve"/>
      <point x="419" y="0" type="line"/>
      <point x="162" y="0" type="line"/>
      <point x="162" y="219" type="line"/>
      <point x="108" y="225"/>
      <point x="57" y="237"/>
      <point x="15" y="252" type="curve"/>
      <point x="15" y="720" type="line"/>
      <point x="272" y="720" type="line"/>
      <point x="272" y="364" type="line"/>
      <point x="278" y="363"/>
      <point x="284" y="363"/>
      <point x="290" y="363" type="curve" smooth="yes"/>
      <point x="296" y="363"/>
      <point x="301" y="363"/>
      <point x="307" y="364" type="curve"/>
      <point x="307" y="720" type="line"/>
      <point x="564" y="720" type="line"/>
    </contour>
  </outline>
</glyph>
<glyph name="Z" format="1">
  <advance width="504"/>
  <unicode hex="005A"/>
  <outline>
    <contour>
      <point x="491" y="0" type="line"/>
      <point x="12" y="0" type="line"/>
      <point x="12" y="166" type="line"/>
      <point x="173" y="545" type="line"/>
      <point x="15" y="545" type="line"/>
      <point x="15" y="720" type="line"/>
      <point x="490" y="720" type="line"/>
      <point x="490" y="560" type="line"/>
      <point x="331" y="175" type="line"/>
      <point x="491" y="175" type="line"/>
    </contour>
  </outline>
</glyph>
<glyph name="bracketleft" format="1">
  <advance width="334"/>
  <unicode hex="005B"/>
  <outline>
    <contour>
      <point x="319" y="0" type="line"/>
      <point x="16" y="0" type="line"/>
      <point x="16" y="720" type="line"/>
      <point x="319" y="720" type="line"/>
      <point x="319" y="546" type="line"/>
      <point x="257" y="546" type="line"/>
      <point x="257" y="174" type="line"/>
      <point x="319" y="174" type="line"/>
    </contour>
  </outline>
</glyph>
<glyph name="backslash" format="1">
  <advance width="394"/>
  <unicode hex="005C"/>
  <outline>
    <contour>
      <point x="386" y="0" type="line"/>
      <point x="125" y="0" type="line"/>
      <point x="6" y="720" type="line"/>
      <point x="268" y="720" type="line"/>
    </contour>
  </outline>
</glyph>
<glyph name="bracketright" format="1">
  <advance width="334"/>
  <unicode hex="005D"/>
  <outline>
    <contour>
      <point x="318" y="0" type="line"/>
      <point x="15" y="0" type="line"/>
      <point x="15" y="174" type="line"/>
      <point x="77" y="174" type="line"/>
      <point x="77" y="546" type="line"/>
      <point x="15" y="546" type="line"/>
      <point x="15" y="720" type="line"/>
      <point x="318" y="720" type="line"/>
    </contour>
  </outline>
</glyph>
<glyph name="asciicircum" format="1">
  <advance width="502"/>
  <unicode hex="005E"/>
  <outline>
    <contour>
      <point x="498" y="350" type="line"/>
      <point x="276" y="350" type="line"/>
      <point x="251" y="579" type="line"/>
      <point x="225" y="350" type="line"/>
      <point x="4" y="350" type="line"/>
      <point x="106" y="722" type="line"/>
      <point x="395" y="722" type="line"/>
    </contour>
  </outline>
</glyph>
<glyph name="underscore" format="1">
  <advance width="427"/>
  <unicode hex="005F"/>
  <outline>
    <contour>
      <point x="427" y="-154" type="line"/>
      <point x="0" y="-154" type="line"/>
      <point x="0" y="-30" type="line"/>
      <point x="427" y="-30" type="line"/>
    </contour>
  </outline>
</glyph>
<glyph name="grave" format="1">
  <advance width="470"/>
  <unicode hex="0060"/>
  <outline>
    <contour>
      <point x="378" y="507" type="line"/>
      <point x="182" y="507" type="line"/>
      <point x="92" y="692" type="line"/>
      <point x="298" y="692" type="line"/>
    </contour>
  </outline>
</glyph>
<glyph name="a" format="1">
  <advance width="473"/>
  <unicode hex="0061"/>
  <outline>
    <contour>
      <point x="462" y="26" type="line"/>
      <point x="399" y="2"/>
      <point x="327" y="-10"/>
      <point x="237" y="-10" type="curve" smooth="yes"/>
      <point x="148" y="-10"/>
      <point x="75" y="2"/>
      <point x="12" y="26" type="curve"/>
      <point x="12" y="273" type="line"/>
      <point x="68" y="283"/>
      <point x="130" y="286"/>
      <point x="213" y="286" type="curve" smooth="yes"/>
      <point x="227" y="286"/>
      <point x="243" y="286"/>
      <point x="250" y="285" type="curve"/>
      <point x="250" y="382" type="line"/>
      <point x="246" y="383"/>
      <point x="241" y="384"/>
      <point x="237" y="384" type="curve" smooth="yes"/>
      <point x="232" y="384"/>
      <point x="227" y="383"/>
      <point x="223" y="382" type="curve"/>
      <point x="223" y="299" type="line"/>
      <point x="12" y="299" type="line"/>
      <point x="12" y="454" type="line"/>
      <point x="74" y="478"/>
      <point x="147" y="490"/>
      <point x="237" y="490" type="curve" smooth="yes"/>
      <point x="325" y="490"/>
      <point x="398" y="478"/>
      <point x="462" y="454" type="curve"/>
    </contour>
    <contour>
      <point x="250" y="90" type="curve"/>
      <point x="250" y="193" type="line"/>
      <point x="246" y="194"/>
      <point x="241" y="195"/>
      <point x="237" y="195" type="curve" smooth="yes"/>
      <point x="232" y="195"/>
      <point x="227" y="194"/>
      <point x="223" y="193" type="curve"/>
      <point x="223" y="90" type="line"/>
      <point x="227" y="88"/>
      <point x="232" y="88"/>
      <point x="237" y="88" type="curve" smooth="yes"/>
      <point x="241" y="88"/>
      <point x="246" y="88"/>
    </contour>
  </outline>
</glyph>
<glyph name="b" format="1">
  <advance width="474"/>
  <unicode hex="0062"/>
  <outline>
    <contour>
      <point x="462" y="26" type="line"/>
      <point x="400" y="3"/>
      <point x="327" y="-10"/>
      <point x="237" y="-10" type="curve" smooth="yes"/>
      <point x="148" y="-10"/>
      <point x="75" y="2"/>
      <point x="12" y="26" type="curve"/>
      <point x="12" y="720" type="line"/>
      <point x="225" y="720" type="line"/>
      <point x="225" y="481" type="line"/>
      <point x="235" y="483"/>
      <point x="252" y="485"/>
      <point x="271" y="485" type="curve" smooth="yes"/>
      <point x="338" y="485"/>
      <point x="405" y="474"/>
      <point x="462" y="449" type="curve"/>
    </contour>
    <contour>
      <point x="251" y="119" type="curve"/>
      <point x="251" y="356" type="line"/>
      <point x="246" y="357"/>
      <point x="242" y="358"/>
      <point x="237" y="358" type="curve" smooth="yes"/>
      <point x="232" y="358"/>
      <point x="228" y="357"/>
      <point x="224" y="356" type="curve"/>
      <point x="224" y="119" type="line"/>
      <point x="228" y="118"/>
      <point x="232" y="117"/>
      <point x="237" y="117" type="curve" smooth="yes"/>
      <point x="242" y="117"/>
      <point x="246" y="118"/>
    </contour>
  </outline>
</glyph>
<glyph name="e" format="1">
  <advance width="473"/>
  <unicode hex="0065"/>
  <outline>
    <contour>
      <point x="462" y="26" type="line"/>
      <point x="399" y="3"/>
      <point x="326" y="-10"/>
      <point x="237" y="-10" type="curve" smooth="yes"/>
      <point x="148" y="-10"/>
      <point x="75" y="2"/>
      <point x="12" y="26" type="curve"/>
      <point x="12" y="454" type="line"/>
      <point x="74" y="478"/>
      <point x="147" y="490"/>
      <point x="237" y="490" type="curve" smooth="yes"/>
      <point x="326" y="490"/>
      <point x="398" y="478"/>
      <point x="462" y="454" type="curve"/>
      <point x="462" y="191" type="line"/>
      <point x="223" y="191" type="line"/>
      <point x="223" y="98" type="line"/>
      <point x="227" y="97"/>
      <point x="232" y="96"/>
      <point x="237" y="96" type="curve" smooth="yes"/>
      <point x="241" y="96"/>
      <point x="246" y="97"/>
      <point x="250" y="98" type="curve"/>
      <point x="250" y="177" type="line"/>
      <point x="462" y="177" type="line"/>
    </contour>
    <contour>
      <point x="250" y="280" type="curve"/>
      <point x="250" y="388" type="line"/>
      <point x="246" y="389"/>
      <point x="241" y="389"/>
      <point x="237" y="389" type="curve" smooth="yes"/>
      <point x="232" y="389"/>
      <point x="227" y="389"/>
      <point x="223" y="388" type="curve"/>
      <point x="223" y="280" type="line"/>
      <point x="224" y="280"/>
      <point x="249" y="280"/>
    </contour>
  </outline>
</glyph>
<glyph name="f" format="1">
  <advance width="295"/>
  <unicode hex="0066"/>
  <outline>
    <contour>
      <point x="293" y="589" type="line"/>
      <point x="268" y="589" type="line" smooth="yes"/>
      <point x="258" y="589"/>
      <point x="248" y="589"/>
      <point x="240" y="587" type="curve"/>
      <point x="240" y="480" type="line"/>
      <point x="289" y="480" type="line"/>
      <point x="289" y="343" type="line"/>
      <point x="240" y="343" type="line"/>
      <point x="240" y="0" type="line"/>
      <point x="25" y="0" type="line"/>
      <point x="25" y="343" type="line"/>
      <point x="7" y="343" type="line"/>
      <point x="7" y="480" type="line"/>
      <point x="25" y="480" type="line"/>
      <point x="25" y="693" type="line"/>
      <point x="87" y="713"/>
      <point x="151" y="722"/>
      <point x="228" y="722" type="curve" smooth="yes"/>
      <point x="293" y="722" type="line"/>
    </contour>
  </outline>
</glyph>
<glyph name="g" format="1">
  <advance width="474"/>
  <unicode hex="0067"/>
  <outline>
    <contour>
      <point x="462" y="-148" type="line"/>
      <point x="398" y="-172"/>
      <point x="325" y="-183"/>
      <point x="237" y="-183" type="curve" smooth="yes"/>
      <point x="147" y="-183"/>
      <point x="74" y="-171"/>
      <point x="12" y="-148" type="curve"/>
      <point x="12" y="-10" type="line"/>
      <point x="223" y="-10" type="line"/>
      <point x="223" y="-79" type="line"/>
      <point x="227" y="-80"/>
      <point x="232" y="-80"/>
      <point x="237" y="-80" type="curve" smooth="yes"/>
      <point x="241" y="-80"/>
      <point x="245" y="-80"/>
      <point x="249" y="-79" type="curve"/>
      <point x="249" y="5" type="line"/>
      <point x="239" y="4"/>
      <point x="221" y="3"/>
      <point x="202" y="3" type="curve" smooth="yes"/>
      <point x="134" y="3"/>
      <point x="68" y="9"/>
      <point x="12" y="24" type="curve"/>
      <point x="12" y="454" type="line"/>
      <point x="74" y="478"/>
      <point x="147" y="490"/>
      <point x="237" y="490" type="curve" smooth="yes"/>
      <point x="325" y="490"/>
      <point x="398" y="478"/>
      <point x="462" y="454" type="curve"/>
    </contour>
    <contour>
      <point x="250" y="121" type="curve"/>
      <point x="250" y="361" type="line"/>
      <point x="246" y="362"/>
      <point x="241" y="363"/>
      <point x="237" y="363" type="curve" smooth="yes"/>
      <point x="232" y="363"/>
      <point x="228" y="362"/>
      <point x="223" y="361" type="curve"/>
      <point x="223" y="121" type="line"/>
      <point x="228" y="120"/>
      <point x="232" y="119"/>
      <point x="237" y="119" type="curve" smooth="yes"/>
      <point x="241" y="119"/>
      <point x="246" y="120"/>
    </contour>
  </outline>
</glyph>
<glyph name="h" format="1">
  <advance width="475"/>
  <unicode hex="0068"/>
  <outline>
    <contour>
      <point x="462" y="0" type="line"/>
      <point x="250" y="0" type="line"/>
      <point x="250" y="344" type="line"/>
      <point x="246" y="346"/>
      <point x="242" y="346"/>
      <point x="237" y="346" type="curve" smooth="yes"/>
      <point x="233" y="346"/>
      <point x="229" y="346"/>
      <point x="225" y="344" type="curve"/>
      <point x="225" y="0" type="line"/>
      <point x="12" y="0" type="line"/>
      <point x="12" y="720" type="line"/>
      <point x="225" y="720" type="line"/>
      <point x="225" y="481" type="line"/>
      <point x="235" y="483"/>
      <point x="251" y="485"/>
      <point x="270" y="485" type="curve" smooth="yes"/>
      <point x="337" y="485"/>
      <point x="405" y="474"/>
      <point x="462" y="449" type="curve"/>
    </contour>
  </outline>
</glyph>
<glyph name="i" format="1">
  <advance width="240"/>
  <unicode hex="0069"/>
  <outline>
    <contour>
      <point x="227" y="498" type="line"/>
      <point x="12" y="498" type="line"/>
      <point x="12" y="674" type="line"/>
      <point x="227" y="674" type="line"/>
    </contour>
    <contour>
      <point x="227" y="0" type="line"/>
      <point x="12" y="0" type="line"/>
      <point x="12" y="480" type="line"/>
      <point x="227" y="480" type="line"/>
    </contour>
  </outline>
</glyph>
<glyph name="j" format="1">
  <advance width="240"/>
  <unicode hex="006A"/>
  <outline>
    <contour>
      <point x="227" y="498" type="line"/>
      <point x="12" y="498" type="line"/>
      <point x="12" y="674" type="line"/>
      <point x="227" y="674" type="line"/>
    </contour>
    <contour>
      <point x="227" y="-152" type="line"/>
      <point x="165" y="-171"/>
      <point x="101" y="-181"/>
      <point x="24" y="-181" type="curve" smooth="yes"/>
      <point x="-37" y="-181" type="line"/>
      <point x="-37" y="-45" type="line"/>
      <point x="-15" y="-45" type="line" smooth="yes"/>
      <point x="-5" y="-45"/>
      <point x="5" y="-45"/>
      <point x="12" y="-44" type="curve"/>
      <point x="12" y="480" type="line"/>
      <point x="227" y="480" type="line"/>
    </contour>
  </outline>
</glyph>
<glyph name="k" format="1">
  <advance width="474"/>
  <unicode hex="006B"/>
  <outline>
    <contour>
      <point x="462" y="0" type="line"/>
      <point x="250" y="0" type="line"/>
      <point x="250" y="168" type="line"/>
      <point x="246" y="169"/>
      <point x="241" y="170"/>
      <point x="236" y="170" type="curve" smooth="yes"/>
      <point x="225" y="170" type="line"/>
      <point x="225" y="0" type="line"/>
      <point x="12" y="0" type="line"/>
      <point x="12" y="720" type="line"/>
      <point x="225" y="720" type="line"/>
      <point x="225" y="316" type="line"/>
      <point x="236" y="316" type="line" smooth="yes"/>
      <point x="242" y="316"/>
      <point x="246" y="317"/>
      <point x="250" y="318" type="curve"/>
      <point x="250" y="480" type="line"/>
      <point x="462" y="480" type="line"/>
      <point x="462" y="261" type="line"/>
      <point x="443" y="255"/>
      <point x="397" y="247"/>
      <point x="356" y="243" type="curve"/>
      <point x="397" y="240"/>
      <point x="442" y="231"/>
      <point x="462" y="224" type="curve"/>
    </contour>
  </outline>
</glyph>
<glyph name="m" format="1">
  <advance width="697"/>
  <unicode hex="006D"/>
  <outline>
    <contour>
      <point x="684" y="0" type="line"/>
      <point x="477" y="0" type="line"/>
      <point x="477" y="355" type="line"/>
      <point x="471" y="356"/>
      <point x="462" y="357"/>
      <point x="452" y="357" type="curve"/>
      <point x="452" y="0" type="line"/>
      <point x="245" y="0" type="line"/>
      <point x="245" y="357" type="line"/>
      <point x="235" y="357"/>
      <point x="225" y="356"/>
      <point x="220" y="355" type="curve"/>
      <point x="220" y="0" type="line"/>
      <point x="12" y="0" type="line"/>
      <point x="12" y="459" type="line"/>
      <point x="100" y="482"/>
      <point x="233" y="492"/>
      <point x="348" y="492" type="curve" smooth="yes"/>
      <point x="463" y="492"/>
      <point x="597" y="482"/>
      <point x="684" y="459" type="curve"/>
    </contour>
  </outline>
</glyph>
<glyph name="n" format="1">
  <advance width="475"/>
  <unicode hex="006E"/>
  <outline>
    <contour>
      <point x="462" y="0" type="line"/>
      <point x="250" y="0" type="line"/>
      <point x="250" y="347" type="line"/>
      <point x="246" y="348"/>
      <point x="242" y="349"/>
      <point x="237" y="349" type="curve" smooth="yes"/>
      <point x="233" y="349"/>
      <point x="229" y="348"/>
      <point x="225" y="347" type="curve"/>
      <point x="225" y="0" type="line"/>
      <point x="12" y="0" type="line"/>
      <point x="12" y="454" type="line"/>
      <point x="75" y="478"/>
      <point x="147" y="490"/>
      <point x="237" y="490" type="curve" smooth="yes"/>
      <point x="326" y="490"/>
      <point x="399" y="478"/>
      <point x="462" y="454" type="curve"/>
    </contour>
  </outline>
</glyph>
<glyph name="o" format="1">
  <advance width="473"/>
  <unicode hex="006F"/>
  <outline>
    <contour>
      <point x="462" y="26" type="line"/>
      <point x="399" y="3"/>
      <point x="326" y="-10"/>
      <point x="237" y="-10" type="curve" smooth="yes"/>
      <point x="148" y="-10"/>
      <point x="75" y="2"/>
      <point x="12" y="26" type="curve"/>
      <point x="12" y="454" type="line"/>
      <point x="74" y="478"/>
      <point x="147" y="490"/>
      <point x="237" y="490" type="curve" smooth="yes"/>
      <point x="326" y="490"/>
      <point x="398" y="478"/>
      <point x="462" y="454" type="curve"/>
    </contour>
    <contour>
      <point x="250" y="119" type="curve"/>
      <point x="250" y="361" type="line"/>
      <point x="246" y="362"/>
      <point x="241" y="363"/>
      <point x="237" y="363" type="curve" smooth="yes"/>
      <point x="232" y="363"/>
      <point x="227" y="362"/>
      <point x="223" y="361" type="curve"/>
      <point x="223" y="119" type="line"/>
      <point x="227" y="118"/>
      <point x="232" y="117"/>
      <point x="237" y="117" type="curve" smooth="yes"/>
      <point x="241" y="117"/>
      <point x="246" y="118"/>
    </contour>
  </outline>
</glyph>
<glyph name="p" format="1">
  <advance width="474"/>
  <unicode hex="0070"/>
  <outline>
    <contour>
      <point x="462" y="31" type="line"/>
      <point x="405" y="6"/>
      <point x="338" y="-5"/>
      <point x="271" y="-5" type="curve" smooth="yes"/>
      <point x="252" y="-5"/>
      <point x="235" y="-3"/>
      <point x="225" y="-1" type="curve"/>
      <point x="225" y="-175" type="line"/>
      <point x="12" y="-175" type="line"/>
      <point x="12" y="454" type="line"/>
      <point x="75" y="478"/>
      <point x="148" y="490"/>
      <point x="237" y="490" type="curve" smooth="yes"/>
      <point x="327" y="490"/>
      <point x="400" y="478"/>
      <point x="462" y="454" type="curve"/>
    </contour>
    <contour>
      <point x="251" y="124" type="curve"/>
      <point x="251" y="361" type="line"/>
      <point x="246" y="362"/>
      <point x="242" y="363"/>
      <point x="237" y="363" type="curve" smooth="yes"/>
      <point x="232" y="363"/>
      <point x="228" y="362"/>
      <point x="224" y="361" type="curve"/>
      <point x="224" y="124" type="line"/>
      <point x="228" y="123"/>
      <point x="232" y="122"/>
      <point x="237" y="122" type="curve" smooth="yes"/>
      <point x="242" y="122"/>
      <point x="246" y="123"/>
    </contour>
  </outline>
</glyph>
<glyph name="q" format="1">
  <advance width="474"/>
  <unicode hex="0071"/>
  <outline>
    <contour>
      <point x="462" y="-175" type="line"/>
      <point x="249" y="-175" type="line"/>
      <point x="249" y="-1" type="line"/>
      <point x="239" y="-3"/>
      <point x="222" y="-5"/>
      <point x="203" y="-5" type="curve" smooth="yes"/>
      <point x="135" y="-5"/>
      <point x="68" y="6"/>
      <point x="12" y="31" type="curve"/>
      <point x="12" y="454" type="line"/>
      <point x="74" y="478"/>
      <point x="147" y="490"/>
      <point x="237" y="490" type="curve" smooth="yes"/>
      <point x="325" y="490"/>
      <point x="398" y="478"/>
      <point x="462" y="454" type="curve"/>
    </contour>
    <contour>
      <point x="250" y="124" type="curve"/>
      <point x="250" y="361" type="line"/>
      <point x="246" y="362"/>
      <point x="241" y="363"/>
      <point x="237" y="363" type="curve" smooth="yes"/>
      <point x="232" y="363"/>
      <point x="228" y="362"/>
      <point x="223" y="361" type="curve"/>
      <point x="223" y="124" type="line"/>
      <point x="228" y="123"/>
      <point x="232" y="122"/>
      <point x="237" y="122" type="curve" smooth="yes"/>
      <point x="241" y="122"/>
      <point x="246" y="123"/>
    </contour>
  </outline>
</glyph>
<glyph name="r" format="1">
  <advance width="306"/>
  <unicode hex="0072"/>
  <outline>
    <contour>
      <point x="300" y="345" type="line"/>
      <point x="255" y="345" type="line" smooth="yes"/>
      <point x="245" y="345"/>
      <point x="235" y="345"/>
      <point x="227" y="343" type="curve"/>
      <point x="227" y="0" type="line"/>
      <point x="12" y="0" type="line"/>
      <point x="12" y="455" type="line"/>
      <point x="75" y="475"/>
      <point x="138" y="484"/>
      <point x="216" y="484" type="curve" smooth="yes"/>
      <point x="300" y="484" type="line"/>
    </contour>
  </outline>
</glyph>
<glyph name="s" format="1">
  <advance width="473"/>
  <unicode hex="0073"/>
  <outline>
    <contour>
      <point x="462" y="26" type="line"/>
      <point x="398" y="2"/>
      <point x="325" y="-10"/>
      <point x="237" y="-10" type="curve" smooth="yes"/>
      <point x="147" y="-10"/>
      <point x="74" y="3"/>
      <point x="12" y="26" type="curve"/>
      <point x="12" y="173" type="line"/>
      <point x="222" y="173" type="line"/>
      <point x="222" y="97" type="line"/>
      <point x="226" y="96"/>
      <point x="231" y="95"/>
      <point x="237" y="95" type="curve" smooth="yes"/>
      <point x="242" y="95"/>
      <point x="247" y="96"/>
      <point x="251" y="97" type="curve"/>
      <point x="251" y="188" type="line"/>
      <point x="12" y="188" type="line"/>
      <point x="12" y="454" type="line"/>
      <point x="75" y="478"/>
      <point x="148" y="490"/>
      <point x="237" y="490" type="curve" smooth="yes"/>
      <point x="326" y="490"/>
      <point x="399" y="478"/>
      <point x="462" y="454" type="curve"/>
      <point x="462" y="309" type="line"/>
      <point x="251" y="309" type="line"/>
      <point x="251" y="383" type="line"/>
      <point x="247" y="384"/>
      <point x="242" y="385"/>
      <point x="237" y="385" type="curve" smooth="yes"/>
      <point x="231" y="385"/>
      <point x="226" y="384"/>
      <point x="222" y="383" type="curve"/>
      <point x="222" y="295" type="line"/>
      <point x="462" y="295" type="line"/>
    </contour>
  </outline>
</glyph>
<glyph name="t" format="1">
  <advance width="303"/>
  <unicode hex="0074"/>
  <outline>
    <contour>
      <point x="291" y="-4" type="line"/>
      <point x="228" y="-4" type="line" smooth="yes"/>
      <point x="151" y="-4"/>
      <point x="87" y="5"/>
      <point x="25" y="25" type="curve"/>
      <point x="25" y="343" type="line"/>
      <point x="7" y="343" type="line"/>
      <point x="7" y="480" type="line"/>
      <point x="25" y="480" type="line"/>
      <point x="25" y="634" type="line"/>
      <point x="240" y="634" type="line"/>
      <point x="240" y="480" type="line"/>
      <point x="291" y="480" type="line"/>
      <point x="291" y="343" type="line"/>
      <point x="240" y="343" type="line"/>
      <point x="240" y="130" type="line"/>
      <point x="248" y="129"/>
      <point x="258" y="129"/>
      <point x="268" y="129" type="curve" smooth="yes"/>
      <point x="291" y="129" type="line"/>
    </contour>
  </outline>
</glyph>
<glyph name="u" format="1">
  <advance width="475"/>
  <unicode hex="0075"/>
  <outline>
    <contour>
      <point x="462" y="26" type="line"/>
      <point x="399" y="2"/>
      <point x="326" y="-10"/>
      <point x="237" y="-10" type="curve" smooth="yes"/>
      <point x="147" y="-10"/>
      <point x="75" y="2"/>
      <point x="12" y="26" type="curve"/>
      <point x="12" y="480" type="line"/>
      <point x="225" y="480" type="line"/>
      <point x="225" y="133" type="line"/>
      <point x="229" y="132"/>
      <point x="233" y="131"/>
      <point x="237" y="131" type="curve" smooth="yes"/>
      <point x="242" y="131"/>
      <point x="246" y="132"/>
      <point x="250" y="133" type="curve"/>
      <point x="250" y="480" type="line"/>
      <point x="462" y="480" type="line"/>
    </contour>
  </outline>
</glyph>
<glyph name="v" format="1">
  <advance width="472"/>
  <unicode hex="0076"/>
  <outline>
    <contour>
      <point x="461" y="249" type="line" smooth="yes"/>
      <point x="461" y="128"/>
      <point x="422" y="66"/>
      <point x="350" y="-1" type="curve"/>
      <point x="122" y="-1" type="line"/>
      <point x="50" y="65"/>
      <point x="11" y="127"/>
      <point x="11" y="249" type="curve" smooth="yes"/>
      <point x="11" y="480" type="line"/>
      <point x="223" y="480" type="line"/>
      <point x="223" y="222" type="line" smooth="yes"/>
      <point x="223" y="167"/>
      <point x="227" y="152"/>
      <point x="236" y="123" type="curve"/>
      <point x="244" y="152"/>
      <point x="248" y="167"/>
      <point x="248" y="222" type="curve" smooth="yes"/>
      <point x="248" y="480" type="line"/>
      <point x="461" y="480" type="line"/>
    </contour>
  </outline>
</glyph>
<glyph name="w" format="1">
  <advance width="697"/>
  <unicode hex="0077"/>
  <outline>
    <contour>
      <point x="684" y="21" type="line"/>
      <point x="597" y="-2"/>
      <point x="463" y="-12"/>
      <point x="348" y="-12" type="curve" smooth="yes"/>
      <point x="233" y="-12"/>
      <point x="100" y="-2"/>
      <point x="12" y="21" type="curve"/>
      <point x="12" y="480" type="line"/>
      <point x="220" y="480" type="line"/>
      <point x="220" y="125" type="line"/>
      <point x="225" y="124"/>
      <point x="235" y="123"/>
      <point x="245" y="123" type="curve"/>
      <point x="245" y="480" type="line"/>
      <point x="452" y="480" type="line"/>
      <point x="452" y="123" type="line"/>
      <point x="462" y="124"/>
      <point x="471" y="124"/>
      <point x="477" y="125" type="curve"/>
      <point x="477" y="480" type="line"/>
      <point x="684" y="480" type="line"/>
    </contour>
  </outline>
</glyph>
<glyph name="x" format="1">
  <advance width="473"/>
  <unicode hex="0078"/>
  <outline>
    <contour>
      <point x="462" y="0" type="line"/>
      <point x="249" y="0" type="line"/>
      <point x="249" y="168" type="line"/>
      <point x="245" y="169"/>
      <point x="241" y="170"/>
      <point x="237" y="170" type="curve" smooth="yes"/>
      <point x="232" y="170"/>
      <point x="228" y="169"/>
      <point x="224" y="168" type="curve"/>
      <point x="224" y="0" type="line"/>
      <point x="12" y="0" type="line"/>
      <point x="12" y="224" type="line"/>
      <point x="31" y="231"/>
      <point x="76" y="239"/>
      <point x="118" y="243" type="curve"/>
      <point x="77" y="246"/>
      <point x="31" y="255"/>
      <point x="12" y="261" type="curve"/>
      <point x="12" y="480" type="line"/>
      <point x="224" y="480" type="line"/>
      <point x="224" y="318" type="line"/>
      <point x="228" y="316"/>
      <point x="232" y="316"/>
      <point x="237" y="316" type="curve" smooth="yes"/>
      <point x="241" y="316"/>
      <point x="245" y="316"/>
      <point x="249" y="318" type="curve"/>
      <point x="249" y="480" type="line"/>
      <point x="461" y="480" type="line"/>
      <point x="461" y="261" type="line"/>
      <point x="443" y="255"/>
      <point x="397" y="247"/>
      <point x="355" y="243" type="curve"/>
      <point x="396" y="240"/>
      <point x="442" y="231"/>
      <point x="462" y="224" type="curve"/>
    </contour>
  </outline>
</glyph>
<glyph name="y" format="1">
  <advance width="475"/>
  <unicode hex="0079"/>
  <outline>
    <contour>
      <point x="462" y="-150" type="line"/>
      <point x="399" y="-174"/>
      <point x="326" y="-186"/>
      <point x="237" y="-186" type="curve" smooth="yes"/>
      <point x="147" y="-186"/>
      <point x="75" y="-174"/>
      <point x="12" y="-150" type="curve"/>
      <point x="12" y="-10" type="line"/>
      <point x="224" y="-10" type="line"/>
      <point x="224" y="-81" type="line"/>
      <point x="228" y="-82"/>
      <point x="232" y="-82"/>
      <point x="237" y="-82" type="curve" smooth="yes"/>
      <point x="242" y="-82"/>
      <point x="246" y="-82"/>
      <point x="250" y="-81" type="curve"/>
      <point x="250" y="5" type="line"/>
      <point x="240" y="4"/>
      <point x="222" y="3"/>
      <point x="202" y="3" type="curve" smooth="yes"/>
      <point x="135" y="3"/>
      <point x="69" y="9"/>
      <point x="12" y="24" type="curve"/>
      <point x="12" y="480" type="line"/>
      <point x="225" y="480" type="line"/>
      <point x="225" y="133" type="line"/>
      <point x="229" y="131"/>
      <point x="233" y="131"/>
      <point x="237" y="131" type="curve" smooth="yes"/>
      <point x="242" y="131"/>
      <point x="246" y="131"/>
      <point x="250" y="133" type="curve"/>
      <point x="250" y="480" type="line"/>
      <point x="462" y="480" type="line"/>
    </contour>
  </outline>
</glyph>
<glyph name="z" format="1">
  <advance width="408"/>
  <unicode hex="007A"/>
  <outline>
    <contour>
      <point x="400" y="0" type="line"/>
      <point x="8" y="0" type="line"/>
      <point x="8" y="130" type="line"/>
      <point x="124" y="350" type="line"/>
      <point x="10" y="350" type="line"/>
      <point x="10" y="480" type="line"/>
      <point x="399" y="480" type="line"/>
      <point x="399" y="349" type="line"/>
      <point x="285" y="131" type="line"/>
      <point x="400" y="131" type="line"/>
    </contour>
  </outline>
</glyph>
<glyph name="braceleft" format="1">
  <advance width="366"/>
  <unicode hex="007B"/>
  <outline>
    <contour>
      <point x="351" y="-2" type="line"/>
      <point x="216" y="-2"/>
      <point x="149" y="4"/>
      <point x="55" y="35" type="curve"/>
      <point x="55" y="292" type="line"/>
      <point x="44" y="295"/>
      <point x="26" y="296"/>
      <point x="7" y="296" type="curve"/>
      <point x="7" y="442" type="line"/>
      <point x="28" y="442"/>
      <point x="42" y="443"/>
      <point x="55" y="447" type="curve"/>
      <point x="55" y="685" type="line"/>
      <point x="148" y="716"/>
      <point x="214" y="722"/>
      <point x="351" y="722" type="curve"/>
      <point x="351" y="546" type="line"/>
      <point x="328" y="546"/>
      <point x="309" y="546"/>
      <point x="290" y="543" type="curve"/>
      <point x="290" y="386" type="line"/>
      <point x="272" y="380"/>
      <point x="233" y="374"/>
      <point x="196" y="370" type="curve"/>
      <point x="232" y="366"/>
      <point x="272" y="360"/>
      <point x="290" y="353" type="curve"/>
      <point x="290" y="177" type="line"/>
      <point x="308" y="175"/>
      <point x="327" y="174"/>
      <point x="351" y="174" type="curve"/>
    </contour>
  </outline>
</glyph>
<glyph name="bar" format="1">
  <advance width="261"/>
  <unicode hex="007C"/>
  <outline>
    <contour>
      <point x="245" y="-100" type="line"/>
      <point x="16" y="-100" type="line"/>
      <point x="16" y="792" type="line"/>
      <point x="245" y="792" type="line"/>
    </contour>
  </outline>
</glyph>
<glyph name="braceright" format="1">
  <advance width="366"/>
  <unicode hex="007D"/>
  <outline>
    <contour>
      <point x="358" y="296" type="line"/>
      <point x="339" y="296"/>
      <point x="321" y="295"/>
      <point x="310" y="292" type="curve"/>
      <point x="310" y="35" type="line"/>
      <point x="216" y="4"/>
      <point x="150" y="-2"/>
      <point x="15" y="-2" type="curve"/>
      <point x="15" y="174" type="line"/>
      <point x="38" y="174"/>
      <point x="58" y="175"/>
      <point x="76" y="177" type="curve"/>
      <point x="76" y="353" type="line"/>
      <point x="94" y="360"/>
      <point x="134" y="366"/>
      <point x="169" y="370" type="curve"/>
      <point x="133" y="374"/>
      <point x="94" y="380"/>
      <point x="76" y="386" type="curve"/>
      <point x="76" y="543" type="line"/>
      <point x="57" y="546"/>
      <point x="38" y="546"/>
      <point x="15" y="546" type="curve"/>
      <point x="15" y="722" type="line"/>
      <point x="151" y="722"/>
      <point x="218" y="716"/>
      <point x="310" y="685" type="curve"/>
      <point x="310" y="447" type="line"/>
      <point x="323" y="443"/>
      <point x="337" y="442"/>
      <point x="358" y="442" type="curve"/>
    </contour>
  </outline>
</glyph>
<glyph name="asciitilde" format="1">
  <advance width="557"/>
  <unicode hex="007E"/>
  <outline>
    <contour>
      <point x="540" y="486" type="line"/>
      <point x="514" y="255" type="line"/>
      <point x="330" y="255" type="line"/>
      <point x="214" y="311" type="line"/>
      <point x="208" y="255" type="line"/>
      <point x="17" y="255" type="line"/>
      <point x="43" y="486" type="line"/>
      <point x="227" y="486" type="line"/>
      <point x="343" y="429" type="line"/>
      <point x="349" y="486" type="line"/>
    </contour>
  </outline>
</glyph>
<glyph name="exclamdown" format="1">
  <advance width="277"/>
  <unicode hex="00A1"/>
  <outline>
    <contour>
      <point x="261" y="545" type="line"/>
      <point x="15" y="545" type="line"/>
      <point x="15" y="720" type="line"/>
      <point x="261" y="720" type="line"/>
    </contour>
    <contour>
      <point x="261" y="0" type="line"/>
      <point x="15" y="0" type="line"/>
      <point x="15" y="528" type="line"/>
      <point x="261" y="528" type="line"/>
    </contour>
  </outline>
</glyph>
<glyph name="cent" format="1">
  <advance width="473"/>
  <unicode hex="00A2"/>
  <outline>
    <contour>
      <point x="462" y="145" type="line"/>
      <point x="428" y="133"/>
      <point x="391" y="123"/>
      <point x="349" y="117" type="curve"/>
      <point x="349" y="0" type="line"/>
      <point x="121" y="0" type="line"/>
      <point x="121" y="118" type="line"/>
      <point x="81" y="123"/>
      <point x="45" y="133"/>
      <point x="12" y="145" type="curve"/>
      <point x="12" y="573" type="line"/>
      <point x="45" y="585"/>
      <point x="81" y="595"/>
      <point x="121" y="600" type="curve"/>
      <point x="121" y="720" type="line"/>
      <point x="349" y="720" type="line"/>
      <point x="349" y="601" type="line"/>
      <point x="391" y="596"/>
      <point x="428" y="586"/>
      <point x="462" y="573" type="curve"/>
      <point x="462" y="369" type="line"/>
      <point x="250" y="369" type="line"/>
      <point x="250" y="480" type="line"/>
      <point x="246" y="481"/>
      <point x="240" y="482"/>
      <point x="237" y="482" type="curve" smooth="yes"/>
      <point x="233" y="482"/>
      <point x="227" y="481"/>
      <point x="223" y="480" type="curve"/>
      <point x="223" y="238" type="line"/>
      <point x="227" y="237"/>
      <point x="233" y="236"/>
      <point x="237" y="236" type="curve" smooth="yes"/>
      <point x="240" y="236"/>
      <point x="246" y="237"/>
      <point x="250" y="238" type="curve"/>
      <point x="250" y="350" type="line"/>
      <point x="462" y="350" type="line"/>
    </contour>
  </outline>
</glyph>
<glyph name="sterling" format="1">
  <advance width="565"/>
  <unicode hex="00A3"/>
  <outline>
    <contour>
      <point x="549" y="0" type="line"/>
      <point x="16" y="0" type="line"/>
      <point x="16" y="689" type="line"/>
      <point x="91" y="716"/>
      <point x="185" y="730"/>
      <point x="283" y="730" type="curve" smooth="yes"/>
      <point x="380" y="730"/>
      <point x="473" y="717"/>
      <point x="549" y="689" type="curve"/>
      <point x="549" y="456" type="line"/>
      <point x="301" y="456" type="line"/>
      <point x="301" y="581" type="line"/>
      <point x="295" y="583"/>
      <point x="289" y="583"/>
      <point x="282" y="583" type="curve" smooth="yes"/>
      <point x="275" y="583"/>
      <point x="270" y="583"/>
      <point x="263" y="581" type="curve"/>
      <point x="263" y="439" type="line"/>
      <point x="529" y="439" type="line"/>
      <point x="529" y="276" type="line"/>
      <point x="263" y="276" type="line"/>
      <point x="263" y="172" type="line"/>
      <point x="549" y="172" type="line"/>
    </contour>
  </outline>
</glyph>
<glyph name="yen" format="1">
  <advance width="580"/>
  <unicode hex="00A5"/>
  <outline>
    <contour>
      <point x="564" y="272" type="line"/>
      <point x="522" y="256"/>
      <point x="471" y="245"/>
      <point x="419" y="238" type="curve"/>
      <point x="419" y="209" type="line"/>
      <point x="499" y="209" type="line"/>
      <point x="499" y="58" type="line"/>
      <point x="419" y="58" type="line"/>
      <point x="419" y="0" type="line"/>
      <point x="162" y="0" type="line"/>
      <point x="162" y="58" type="line"/>
      <point x="82" y="58" type="line"/>
      <point x="82" y="209" type="line"/>
      <point x="162" y="209" type="line"/>
      <point x="162" y="238" type="line"/>
      <point x="108" y="245"/>
      <point x="57" y="256"/>
      <point x="15" y="272" type="curve"/>
      <point x="15" y="720" type="line"/>
      <point x="272" y="720" type="line"/>
      <point x="272" y="379" type="line"/>
      <point x="278" y="378"/>
      <point x="284" y="378"/>
      <point x="290" y="378" type="curve" smooth="yes"/>
      <point x="296" y="378"/>
      <point x="301" y="378"/>
      <point x="307" y="379" type="curve"/>
      <point x="307" y="720" type="line"/>
      <point x="564" y="720" type="line"/>
    </contour>
  </outline>
</glyph>
<glyph name="section" format="1">
  <advance width="556"/>
  <unicode hex="00A7"/>
  <outline>
    <contour>
      <point x="544" y="-142" type="line"/>
      <point x="468" y="-170"/>
      <point x="378" y="-183"/>
      <point x="280" y="-183" type="curve" smooth="yes"/>
      <point x="184" y="-183"/>
      <point x="94" y="-170"/>
      <point x="17" y="-142" type="curve"/>
      <point x="17" y="70" type="line"/>
      <point x="258" y="70" type="line"/>
      <point x="258" y="-31" type="line"/>
      <point x="264" y="-32"/>
      <point x="271" y="-33"/>
      <point x="278" y="-33" type="curve" smooth="yes"/>
      <point x="285" y="-33"/>
      <point x="290" y="-32"/>
      <point x="296" y="-31" type="curve"/>
      <point x="296" y="61" type="line"/>
      <point x="290" y="82" type="line"/>
      <point x="286" y="82"/>
      <point x="282" y="82"/>
      <point x="278" y="82" type="curve" smooth="yes"/>
      <point x="180" y="82"/>
      <point x="90" y="91"/>
      <point x="15" y="107" type="curve"/>
      <point x="15" y="422" type="line"/>
      <point x="26" y="426"/>
      <point x="38" y="430"/>
      <point x="50" y="433" type="curve"/>
      <point x="15" y="468" type="line"/>
      <point x="15" y="689" type="line"/>
      <point x="90" y="716"/>
      <point x="180" y="730"/>
      <point x="278" y="730" type="curve" smooth="yes"/>
      <point x="375" y="730"/>
      <point x="465" y="717"/>
      <point x="541" y="689" type="curve"/>
      <point x="541" y="476" type="line"/>
      <point x="301" y="476" type="line"/>
      <point x="301" y="578" type="line"/>
      <point x="294" y="579"/>
      <point x="288" y="579"/>
      <point x="280" y="579" type="curve" smooth="yes"/>
      <point x="274" y="579"/>
      <point x="269" y="579"/>
      <point x="262" y="578" type="curve"/>
      <point x="262" y="485" type="line"/>
      <point x="270" y="463" type="line"/>
      <point x="273" y="463"/>
      <point x="275" y="463"/>
      <point x="278" y="463" type="curve" smooth="yes"/>
      <point x="375" y="463"/>
      <point x="465" y="454"/>
      <point x="541" y="438" type="curve"/>
      <point x="541" y="123" type="line"/>
      <point x="531" y="119"/>
      <point x="520" y="116"/>
      <point x="509" y="113" type="curve"/>
      <point x="544" y="79" type="line"/>
    </contour>
    <contour>
      <point x="301" y="214" type="curve"/>
      <point x="301" y="331" type="line"/>
      <point x="294" y="332"/>
      <point x="288" y="332"/>
      <point x="280" y="332" type="curve" smooth="yes"/>
      <point x="274" y="332"/>
      <point x="269" y="332"/>
      <point x="262" y="331" type="curve"/>
      <point x="262" y="214" type="line"/>
      <point x="269" y="213"/>
      <point x="274" y="213"/>
      <point x="280" y="213" type="curve" smooth="yes"/>
      <point x="288" y="213"/>
      <point x="294" y="213"/>
    </contour>
  </outline>
</glyph>
<glyph name="dieresis" format="1">
  <advance width="470"/>
  <unicode hex="00A8"/>
  <outline>
    <contour>
      <point x="440" y="507" type="line"/>
      <point x="246" y="507" type="line"/>
      <point x="246" y="692" type="line"/>
      <point x="440" y="692" type="line"/>
    </contour>
    <contour>
      <point x="223" y="507" type="line"/>
      <point x="30" y="507" type="line"/>
      <point x="30" y="692" type="line"/>
      <point x="223" y="692" type="line"/>
    </contour>
  </outline>
</glyph>
<glyph name="copyright" format="1">
  <advance width="676"/>
  <unicode hex="00A9"/>
  <outline>
    <contour>
      <point x="660" y="36" type="line"/>
      <point x="574" y="4"/>
      <point x="454" y="-10"/>
      <point x="338" y="-10" type="curve" smooth="yes"/>
      <point x="221" y="-10"/>
      <point x="101" y="4"/>
      <point x="15" y="36" type="curve"/>
      <point x="15" y="684" type="line"/>
      <point x="101" y="716"/>
      <point x="221" y="730"/>
      <point x="338" y="730" type="curve" smooth="yes"/>
      <point x="454" y="730"/>
      <point x="574" y="716"/>
      <point x="660" y="684" type="curve"/>
    </contour>
    <contour>
      <point x="543" y="103" type="curve"/>
      <point x="543" y="617" type="line"/>
      <point x="475" y="634"/>
      <point x="401" y="640"/>
      <point x="338" y="640" type="curve" smooth="yes"/>
      <point x="275" y="640"/>
      <point x="202" y="634"/>
      <point x="133" y="617" type="curve"/>
      <point x="133" y="103" type="line"/>
      <point x="202" y="86"/>
      <point x="275" y="80"/>
      <point x="338" y="80" type="curve" smooth="yes"/>
      <point x="401" y="80"/>
      <point x="475" y="86"/>
    </contour>
    <contour>
      <point x="508" y="130" type="line"/>
      <point x="461" y="114"/>
      <point x="398" y="106"/>
      <point x="338" y="106" type="curve" smooth="yes"/>
      <point x="279" y="106"/>
      <point x="215" y="114"/>
      <point x="167" y="130" type="curve"/>
      <point x="167" y="591" type="line"/>
      <point x="214" y="607"/>
      <point x="278" y="615"/>
      <point x="338" y="615" type="curve" smooth="yes"/>
      <point x="398" y="615"/>
      <point x="460" y="607"/>
      <point x="508" y="591" type="curve"/>
      <point x="508" y="380" type="line"/>
      <point x="350" y="380" type="line"/>
      <point x="350" y="517" type="line"/>
      <point x="346" y="518"/>
      <point x="342" y="518"/>
      <point x="338" y="518" type="curve" smooth="yes"/>
      <point x="334" y="518"/>
      <point x="330" y="518"/>
      <point x="325" y="517" type="curve"/>
      <point x="325" y="204" type="line"/>
      <point x="330" y="203"/>
      <point x="334" y="203"/>
      <point x="338" y="203" type="curve" smooth="yes"/>
      <point x="342" y="203"/>
      <point x="346" y="203"/>
      <point x="350" y="204" type="curve"/>
      <point x="350" y="341" type="line"/>
      <point x="508" y="341" type="line"/>
    </contour>
  </outline>
</glyph>
<glyph name="ordfeminine" format="1">
  <advance width="396"/>
  <unicode hex="00AA"/>
  <outline>
    <contour>
      <point x="384" y="361" type="line"/>
      <point x="332" y="341"/>
      <point x="273" y="331"/>
      <point x="198" y="331" type="curve" smooth="yes"/>
      <point x="124" y="331"/>
      <point x="64" y="341"/>
      <point x="12" y="361" type="curve"/>
      <point x="12" y="557" type="line"/>
      <point x="58" y="565"/>
      <point x="109" y="568"/>
      <point x="177" y="568" type="curve" smooth="yes"/>
      <point x="190" y="568"/>
      <point x="204" y="568"/>
      <point x="210" y="567" type="curve"/>
      <point x="210" y="637" type="line"/>
      <point x="206" y="638"/>
      <point x="202" y="639"/>
      <point x="198" y="639" type="curve" smooth="yes"/>
      <point x="194" y="639"/>
      <point x="189" y="638"/>
      <point x="185" y="637" type="curve"/>
      <point x="185" y="580" type="line"/>
      <point x="12" y="580" type="line"/>
      <point x="12" y="697" type="line"/>
      <point x="64" y="717"/>
      <point x="123" y="727"/>
      <point x="198" y="727" type="curve" smooth="yes"/>
      <point x="271" y="727"/>
      <point x="332" y="718"/>
      <point x="384" y="697" type="curve"/>
    </contour>
    <contour>
      <point x="210" y="415" type="curve"/>
      <point x="210" y="489" type="line"/>
      <point x="206" y="490"/>
      <point x="202" y="491"/>
      <point x="198" y="491" type="curve" smooth="yes"/>
      <point x="194" y="491"/>
      <point x="189" y="490"/>
      <point x="185" y="489" type="curve"/>
      <point x="185" y="415" type="line"/>
      <point x="189" y="413"/>
      <point x="194" y="413"/>
      <point x="198" y="413" type="curve" smooth="yes"/>
      <point x="202" y="413"/>
      <point x="206" y="413"/>
    </contour>
  </outline>
</glyph>
<glyph name="guillemotleft" format="1">
  <advance width="600"/>
  <unicode hex="00AB"/>
  <outline>
    <contour>
      <point x="587" y="-5" type="line"/>
      <point x="308" y="145" type="line"/>
      <point x="308" y="335" type="line"/>
      <point x="587" y="485" type="line"/>
      <point x="587" y="287" type="line"/>
      <point x="487" y="240" type="line"/>
      <point x="587" y="194" type="line"/>
    </contour>
    <contour>
      <point x="289" y="-5" type="line"/>
      <point x="9" y="145" type="line"/>
      <point x="9" y="335" type="line"/>
      <point x="289" y="485" type="line"/>
      <point x="289" y="287" type="line"/>
      <point x="189" y="240" type="line"/>
      <point x="289" y="194" type="line"/>
    </contour>
  </outline>
</glyph>
<glyph name="macron" format="1">
  <advance width="470"/>
  <unicode hex="00AF"/>
  <unicode hex="02C9"/>
  <outline>
    <contour>
      <point x="440" y="507" type="line"/>
      <point x="30" y="507" type="line"/>
      <point x="30" y="657" type="line"/>
      <point x="440" y="657" type="line"/>
    </contour>
  </outline>
</glyph>
<glyph name="degree" format="1">
  <advance width="426"/>
  <unicode hex="00B0"/>
  <outline>
    <contour>
      <point x="413" y="349" type="line"/>
      <point x="350" y="330"/>
      <point x="277" y="320"/>
      <point x="213" y="320" type="curve" smooth="yes"/>
      <point x="150" y="320"/>
      <point x="77" y="329"/>
      <point x="13" y="349" type="curve"/>
      <point x="13" y="701" type="line"/>
      <point x="76" y="721"/>
      <point x="149" y="730"/>
      <point x="213" y="730" type="curve" smooth="yes"/>
      <point x="276" y="730"/>
      <point x="349" y="721"/>
      <point x="413" y="701" type="curve"/>
    </contour>
    <contour>
      <point x="227" y="432" type="curve"/>
      <point x="227" y="616" type="line"/>
      <point x="223" y="617"/>
      <point x="218" y="617"/>
      <point x="213" y="617" type="curve" smooth="yes"/>
      <point x="208" y="617"/>
      <point x="203" y="617"/>
      <point x="198" y="616" type="curve"/>
      <point x="198" y="432" type="line"/>
      <point x="203" y="431"/>
      <point x="208" y="431"/>
      <point x="213" y="431" type="curve" smooth="yes"/>
      <point x="218" y="431"/>
      <point x="223" y="431"/>
    </contour>
  </outline>
</glyph>
<glyph name="acute" format="1">
  <advance width="470"/>
  <unicode hex="00B4"/>
  <outline>
    <contour>
      <point x="378" y="692" type="line"/>
      <point x="288" y="507" type="line"/>
      <point x="92" y="507" type="line"/>
      <point x="172" y="692" type="line"/>
    </contour>
  </outline>
</glyph>
<glyph name="paragraph" format="1">
  <advance width="756"/>
  <unicode hex="00B6"/>
  <outline>
    <contour>
      <point x="740" y="0" type="line"/>
      <point x="533" y="0" type="line"/>
      <point x="533" y="581" type="line"/>
      <point x="498" y="581" type="line"/>
      <point x="498" y="0" type="line"/>
      <point x="291" y="0" type="line"/>
      <point x="291" y="223" type="line"/>
      <point x="283" y="223" type="line" smooth="yes"/>
      <point x="180" y="223"/>
      <point x="79" y="240"/>
      <point x="8" y="269" type="curve"/>
      <point x="8" y="675" type="line"/>
      <point x="80" y="704"/>
      <point x="180" y="720"/>
      <point x="283" y="720" type="curve" smooth="yes"/>
      <point x="740" y="720" type="line"/>
    </contour>
    <contour>
      <point x="293" y="362" type="curve"/>
      <point x="293" y="581" type="line"/>
      <point x="293" y="581"/>
      <point x="274" y="581"/>
      <point x="273" y="581" type="curve" smooth="yes"/>
      <point x="266" y="581"/>
      <point x="259" y="580"/>
      <point x="253" y="578" type="curve"/>
      <point x="253" y="365" type="line"/>
      <point x="259" y="363"/>
      <point x="266" y="362"/>
      <point x="273" y="362" type="curve" smooth="yes"/>
      <point x="274" y="362"/>
      <point x="293" y="362"/>
    </contour>
  </outline>
</glyph>
<glyph name="periodcentered" format="1">
  <advance width="251"/>
  <unicode hex="00B7"/>
  <unicode hex="2219"/>
  <outline>
    <contour>
      <point x="240" y="198" type="line"/>
      <point x="11" y="198" type="line"/>
      <point x="11" y="391" type="line"/>
      <point x="240" y="391" type="line"/>
    </contour>
  </outline>
</glyph>
<glyph name="cedilla" format="1">
  <advance width="470"/>
  <unicode hex="00B8"/>
  <outline>
    <contour>
      <point x="320" y="-116" type="line"/>
      <point x="258" y="-136"/>
      <point x="194" y="-146"/>
      <point x="116" y="-146" type="curve" smooth="yes"/>
      <point x="98" y="-146" type="line"/>
      <point x="98" y="-29" type="line"/>
      <point x="120" y="-29" type="line" smooth="yes"/>
      <point x="129" y="-29"/>
      <point x="142" y="-29"/>
      <point x="150" y="-27" type="curve"/>
      <point x="150" y="10" type="line"/>
      <point x="320" y="10" type="line"/>
    </contour>
  </outline>
</glyph>
<glyph name="ordmasculine" format="1">
  <advance width="396"/>
  <unicode hex="00BA"/>
  <outline>
    <contour>
      <point x="384" y="361" type="line"/>
      <point x="332" y="342"/>
      <point x="272" y="331"/>
      <point x="198" y="331" type="curve" smooth="yes"/>
      <point x="124" y="331"/>
      <point x="64" y="341"/>
      <point x="12" y="361" type="curve"/>
      <point x="12" y="697" type="line"/>
      <point x="64" y="717"/>
      <point x="123" y="727"/>
      <point x="198" y="727" type="curve" smooth="yes"/>
      <point x="272" y="727"/>
      <point x="331" y="718"/>
      <point x="384" y="697" type="curve"/>
    </contour>
    <contour>
      <point x="210" y="439" type="curve"/>
      <point x="210" y="620" type="line"/>
      <point x="206" y="621"/>
      <point x="202" y="621"/>
      <point x="198" y="621" type="curve" smooth="yes"/>
      <point x="193" y="621"/>
      <point x="189" y="621"/>
      <point x="185" y="620" type="curve"/>
      <point x="185" y="439" type="line"/>
      <point x="189" y="438"/>
      <point x="193" y="437"/>
      <point x="198" y="437" type="curve" smooth="yes"/>
      <point x="202" y="437"/>
      <point x="206" y="438"/>
    </contour>
  </outline>
</glyph>
<glyph name="guillemotright" format="1">
  <advance width="600"/>
  <unicode hex="00BB"/>
  <outline>
    <contour>
      <point x="590" y="145" type="line"/>
      <point x="311" y="-5" type="line"/>
      <point x="311" y="194" type="line"/>
      <point x="411" y="240" type="line"/>
      <point x="311" y="287" type="line"/>
      <point x="311" y="485" type="line"/>
      <point x="590" y="335" type="line"/>
    </contour>
    <contour>
      <point x="292" y="145" type="line"/>
      <point x="12" y="-5" type="line"/>
      <point x="12" y="194" type="line"/>
      <point x="112" y="240" type="line"/>
      <point x="12" y="287" type="line"/>
      <point x="12" y="485" type="line"/>
      <point x="292" y="335" type="line"/>
    </contour>
  </outline>
</glyph>
<glyph name="questiondown" format="1">
  <advance width="546"/>
  <unicode hex="00BF"/>
  <outline>
    <contour>
      <point x="396" y="545" type="line"/>
      <point x="150" y="545" type="line"/>
      <point x="150" y="720" type="line"/>
      <point x="396" y="720" type="line"/>
    </contour>
    <contour>
      <point x="536" y="31" type="line"/>
      <point x="460" y="3"/>
      <point x="370" y="-10"/>
      <point x="273" y="-10" type="curve" smooth="yes"/>
      <point x="176" y="-10"/>
      <point x="86" y="4"/>
      <point x="10" y="32" type="curve"/>
      <point x="10" y="406" type="line"/>
      <point x="150" y="438" type="line"/>
      <point x="150" y="528" type="line"/>
      <point x="396" y="528" type="line"/>
      <point x="396" y="309" type="line"/>
      <point x="257" y="277" type="line"/>
      <point x="257" y="142" type="line"/>
      <point x="264" y="141"/>
      <point x="269" y="141"/>
      <point x="276" y="141" type="curve" smooth="yes"/>
      <point x="283" y="141"/>
      <point x="289" y="141"/>
      <point x="296" y="142" type="curve"/>
      <point x="296" y="279" type="line"/>
      <point x="536" y="279" type="line"/>
    </contour>
  </outline>
</glyph>
<glyph name="Aring" format="1">
  <advance width="581"/>
  <unicode hex="00C5"/>
  <outline>
    <contour>
      <point x="565" y="0" type="line"/>
      <point x="310" y="0" type="line"/>
      <point x="310" y="224" type="line"/>
      <point x="270" y="224" type="line"/>
      <point x="270" y="0" type="line"/>
      <point x="16" y="0" type="line"/>
      <point x="16" y="689" type="line"/>
      <point x="91" y="716"/>
      <point x="194" y="730"/>
      <point x="291" y="730" type="curve" smooth="yes"/>
      <point x="387" y="730"/>
      <point x="489" y="717"/>
      <point x="565" y="689" type="curve"/>
    </contour>
    <contour>
      <point x="310" y="368" type="line"/>
      <point x="310" y="584" type="line"/>
      <point x="304" y="586"/>
      <point x="297" y="586"/>
      <point x="290" y="586" type="curve" smooth="yes"/>
      <point x="284" y="586"/>
      <point x="277" y="586"/>
      <point x="270" y="584" type="curve"/>
      <point x="270" y="368" type="line"/>
    </contour>
    <contour>
      <point x="490" y="770" type="line"/>
      <point x="434" y="753"/>
      <point x="370" y="744"/>
      <point x="291" y="744" type="curve" smooth="yes"/>
      <point x="212" y="744"/>
      <point x="148" y="753"/>
      <point x="92" y="770" type="curve"/>
      <point x="92" y="932" type="line"/>
      <point x="148" y="949"/>
      <point x="212" y="958"/>
      <point x="291" y="958" type="curve" smooth="yes"/>
      <point x="370" y="958"/>
      <point x="434" y="949"/>
      <point x="490" y="932" type="curve"/>
    </contour>
    <contour>
      <point x="309" y="826" type="curve"/>
      <point x="309" y="876" type="line"/>
      <point x="304" y="877"/>
      <point x="298" y="878"/>
      <point x="291" y="878" type="curve" smooth="yes"/>
      <point x="284" y="878"/>
      <point x="278" y="877"/>
      <point x="272" y="876" type="curve"/>
      <point x="272" y="826" type="line"/>
      <point x="278" y="825"/>
      <point x="284" y="824"/>
      <point x="291" y="824" type="curve" smooth="yes"/>
      <point x="298" y="824"/>
      <point x="304" y="825"/>
    </contour>
  </outline>
</glyph>
<glyph name="AE" format="1">
  <advance width="875"/>
  <unicode hex="00C6"/>
  <outline>
    <contour>
      <point x="860" y="31" type="line"/>
      <point x="785" y="4"/>
      <point x="683" y="-10"/>
      <point x="586" y="-10" type="curve" smooth="yes"/>
      <point x="489" y="-10"/>
      <point x="386" y="4"/>
      <point x="310" y="31" type="curve"/>
      <point x="310" y="224" type="line"/>
      <point x="270" y="224" type="line"/>
      <point x="270" y="0" type="line"/>
      <point x="16" y="0" type="line"/>
      <point x="16" y="689" type="line"/>
      <point x="91" y="716"/>
      <point x="194" y="730"/>
      <point x="291" y="730" type="curve" smooth="yes"/>
      <point x="340" y="730"/>
      <point x="398" y="724"/>
      <point x="438" y="714" type="curve"/>
      <point x="478" y="724"/>
      <point x="537" y="730"/>
      <point x="586" y="730" type="curve" smooth="yes"/>
      <point x="682" y="730"/>
      <point x="784" y="717"/>
      <point x="860" y="689" type="curve"/>
      <point x="860" y="456" type="line"/>
      <point x="605" y="456" type="line"/>
      <point x="605" y="581" type="line"/>
      <point x="598" y="583"/>
      <point x="592" y="583"/>
      <point x="585" y="583" type="curve" smooth="yes"/>
      <point x="579" y="583"/>
      <point x="574" y="583"/>
      <point x="566" y="581" type="curve"/>
      <point x="566" y="439" type="line"/>
      <point x="840" y="439" type="line"/>
      <point x="840" y="286" type="line"/>
      <point x="566" y="286" type="line"/>
      <point x="566" y="139" type="line"/>
      <point x="573" y="138"/>
      <point x="579" y="137"/>
      <point x="585" y="137" type="curve" smooth="yes"/>
      <point x="592" y="137"/>
      <point x="598" y="138"/>
      <point x="605" y="139" type="curve"/>
      <point x="605" y="269" type="line"/>
      <point x="860" y="269" type="line"/>
    </contour>
    <contour>
      <point x="310" y="368" type="line"/>
      <point x="310" y="584" type="line"/>
      <point x="304" y="586"/>
      <point x="297" y="586"/>
      <point x="290" y="586" type="curve" smooth="yes"/>
      <point x="284" y="586"/>
      <point x="277" y="586"/>
      <point x="270" y="584" type="curve"/>
      <point x="270" y="368" type="line"/>
    </contour>
  </outline>
</glyph>
<glyph name="Ccedilla" format="1">
  <advance width="580"/>
  <unicode hex="00C7"/>
  <outline>
    <contour>
      <point x="564" y="31" type="line"/>
      <point x="511" y="11"/>
      <point x="443" y="-1"/>
      <point x="373" y="-6" type="curve"/>
      <point x="373" y="-116" type="line"/>
      <point x="311" y="-136"/>
      <point x="247" y="-146"/>
      <point x="170" y="-146" type="curve" smooth="yes"/>
      <point x="151" y="-146" type="line"/>
      <point x="151" y="-29" type="line"/>
      <point x="173" y="-29" type="line" smooth="yes"/>
      <point x="183" y="-29"/>
      <point x="196" y="-29"/>
      <point x="203" y="-27" type="curve"/>
      <point x="203" y="-6" type="line"/>
      <point x="135" y="0"/>
      <point x="68" y="12"/>
      <point x="15" y="31" type="curve"/>
      <point x="15" y="689" type="line"/>
      <point x="90" y="716"/>
      <point x="193" y="730"/>
      <point x="290" y="730" type="curve" smooth="yes"/>
      <point x="387" y="730"/>
      <point x="488" y="717"/>
      <point x="564" y="689" type="curve"/>
      <point x="564" y="392" type="line"/>
      <point x="309" y="392" type="line"/>
      <point x="309" y="574" type="line"/>
      <point x="302" y="575"/>
      <point x="296" y="575"/>
      <point x="290" y="575" type="curve" smooth="yes"/>
      <point x="283" y="575"/>
      <point x="278" y="575"/>
      <point x="270" y="574" type="curve"/>
      <point x="270" y="146" type="line"/>
      <point x="277" y="145"/>
      <point x="283" y="145"/>
      <point x="290" y="145" type="curve" smooth="yes"/>
      <point x="296" y="145"/>
      <point x="302" y="145"/>
      <point x="309" y="146" type="curve"/>
      <point x="309" y="329" type="line"/>
      <point x="564" y="329" type="line"/>
    </contour>
  </outline>
</glyph>
<glyph name="Eth" format="1">
  <advance width="598"/>
  <unicode hex="00D0"/>
  <outline>
    <contour>
      <point x="583" y="50" type="line"/>
      <point x="505" y="16"/>
      <point x="403" y="0"/>
      <point x="308" y="0" type="curve" smooth="yes"/>
      <point x="33" y="0" type="line"/>
      <point x="33" y="294" type="line"/>
      <point x="3" y="294" type="line"/>
      <point x="3" y="446" type="line"/>
      <point x="33" y="446" type="line"/>
      <point x="33" y="720" type="line"/>
      <point x="308" y="720" type="line" smooth="yes"/>
      <point x="403" y="720"/>
      <point x="504" y="705"/>
      <point x="583" y="670" type="curve"/>
    </contour>
    <contour>
      <point x="327" y="151" type="curve"/>
      <point x="327" y="569" type="line"/>
      <point x="321" y="571"/>
      <point x="315" y="572"/>
      <point x="307" y="572" type="curve" smooth="yes"/>
      <point x="284" y="572" type="line"/>
      <point x="284" y="446" type="line"/>
      <point x="306" y="446" type="line"/>
      <point x="306" y="294" type="line"/>
      <point x="284" y="294" type="line"/>
      <point x="284" y="148" type="line"/>
      <point x="307" y="148" type="line" smooth="yes"/>
      <point x="315" y="148"/>
      <point x="321" y="149"/>
    </contour>
  </outline>
</glyph>
<glyph name="Oslash" format="1">
  <advance width="581"/>
  <unicode hex="00D8"/>
  <outline>
    <contour>
      <point x="564" y="31" type="line"/>
      <point x="493" y="5"/>
      <point x="395" y="-8"/>
      <point x="301" y="-10" type="curve" smooth="yes"/>
      <point x="300" y="-10"/>
      <point x="299" y="-10"/>
      <point x="298" y="-10" type="curve"/>
      <point x="280" y="-73" type="line"/>
      <point x="20" y="-73" type="line"/>
      <point x="50" y="20" type="line"/>
      <point x="38" y="24"/>
      <point x="26" y="27"/>
      <point x="15" y="31" type="curve"/>
      <point x="15" y="689" type="line"/>
      <point x="87" y="715"/>
      <point x="186" y="729"/>
      <point x="279" y="730" type="curve" smooth="yes"/>
      <point x="280" y="730"/>
      <point x="280" y="730"/>
      <point x="281" y="730" type="curve"/>
      <point x="300" y="793" type="line"/>
      <point x="559" y="793" type="line"/>
      <point x="529" y="700" type="line"/>
      <point x="541" y="697"/>
      <point x="553" y="693"/>
      <point x="564" y="689" type="curve"/>
    </contour>
    <contour>
      <point x="309" y="146" type="curve"/>
      <point x="309" y="574" type="line"/>
      <point x="302" y="575"/>
      <point x="296" y="575"/>
      <point x="290" y="575" type="curve" smooth="yes"/>
      <point x="283" y="575"/>
      <point x="277" y="575"/>
      <point x="270" y="574" type="curve"/>
      <point x="270" y="146" type="line"/>
      <point x="277" y="145"/>
      <point x="283" y="145"/>
      <point x="290" y="145" type="curve" smooth="yes"/>
      <point x="296" y="145"/>
      <point x="302" y="145"/>
    </contour>
  </outline>
</glyph>
<glyph name="Thorn" format="1">
  <advance width="574"/>
  <unicode hex="00DE"/>
  <outline>
    <contour>
      <point x="565" y="161" type="line"/>
      <point x="494" y="133"/>
      <point x="394" y="116"/>
      <point x="291" y="116" type="curve" smooth="yes"/>
      <point x="273" y="116" type="line"/>
      <point x="273" y="0" type="line"/>
      <point x="16" y="0" type="line"/>
      <point x="16" y="720" type="line"/>
      <point x="270" y="720" type="line"/>
      <point x="270" y="612" type="line"/>
      <point x="291" y="612" type="line" smooth="yes"/>
      <point x="393" y="612"/>
      <point x="493" y="596"/>
      <point x="565" y="567" type="curve"/>
    </contour>
    <contour>
      <point x="310" y="257" type="curve"/>
      <point x="310" y="471" type="line"/>
      <point x="304" y="473"/>
      <point x="298" y="474"/>
      <point x="290" y="474" type="curve" smooth="yes"/>
      <point x="290" y="474"/>
      <point x="271" y="474"/>
      <point x="270" y="474" type="curve"/>
      <point x="270" y="255" type="line"/>
      <point x="271" y="255"/>
      <point x="290" y="255"/>
      <point x="290" y="255" type="curve" smooth="yes"/>
      <point x="298" y="255"/>
      <point x="304" y="255"/>
    </contour>
  </outline>
</glyph>
<glyph name="germandbls" format="1">
  <advance width="474"/>
  <unicode hex="00DF"/>
  <outline>
    <contour>
      <point x="462" y="31" type="line"/>
      <point x="399" y="8"/>
      <point x="306" y="0"/>
      <point x="235" y="0" type="curve"/>
      <point x="235" y="153" type="line"/>
      <point x="240" y="153"/>
      <point x="245" y="154"/>
      <point x="250" y="155" type="curve"/>
      <point x="250" y="285" type="line"/>
      <point x="246" y="286"/>
      <point x="241" y="287"/>
      <point x="236" y="287" type="curve" smooth="yes"/>
      <point x="223" y="287" type="line"/>
      <point x="223" y="0" type="line"/>
      <point x="12" y="0" type="line"/>
      <point x="12" y="694" type="line"/>
      <point x="75" y="718"/>
      <point x="147" y="730"/>
      <point x="237" y="730" type="curve" smooth="yes"/>
      <point x="326" y="730"/>
      <point x="398" y="718"/>
      <point x="462" y="694" type="curve"/>
      <point x="462" y="378" type="line"/>
      <point x="443" y="372"/>
      <point x="397" y="364"/>
      <point x="356" y="360" type="curve"/>
      <point x="397" y="357"/>
      <point x="442" y="348"/>
      <point x="462" y="341" type="curve"/>
    </contour>
    <contour>
      <point x="250" y="435" type="curve"/>
      <point x="250" y="601" type="line"/>
      <point x="245" y="602"/>
      <point x="241" y="603"/>
      <point x="237" y="603" type="curve" smooth="yes"/>
      <point x="232" y="603"/>
      <point x="227" y="602"/>
      <point x="223" y="601" type="curve"/>
      <point x="223" y="433" type="line"/>
      <point x="236" y="433" type="line" smooth="yes"/>
      <point x="242" y="433"/>
      <point x="246" y="434"/>
    </contour>
  </outline>
</glyph>
<glyph name="ae" format="1">
  <advance width="711"/>
  <unicode hex="00E6"/>
  <outline>
    <contour>
      <point x="700" y="26" type="line"/>
      <point x="637" y="3"/>
      <point x="564" y="-10"/>
      <point x="475" y="-10" type="curve" smooth="yes"/>
      <point x="432" y="-10"/>
      <point x="392" y="-5"/>
      <point x="356" y="1" type="curve"/>
      <point x="320" y="-5"/>
      <point x="280" y="-10"/>
      <point x="237" y="-10" type="curve" smooth="yes"/>
      <point x="148" y="-10"/>
      <point x="75" y="2"/>
      <point x="12" y="26" type="curve"/>
      <point x="12" y="273" type="line"/>
      <point x="68" y="283"/>
      <point x="130" y="286"/>
      <point x="213" y="286" type="curve" smooth="yes"/>
      <point x="227" y="286"/>
      <point x="243" y="286"/>
      <point x="250" y="285" type="curve"/>
      <point x="250" y="382" type="line"/>
      <point x="246" y="384"/>
      <point x="241" y="384"/>
      <point x="237" y="384" type="curve" smooth="yes"/>
      <point x="232" y="384"/>
      <point x="227" y="384"/>
      <point x="223" y="382" type="curve"/>
      <point x="223" y="299" type="line"/>
      <point x="12" y="299" type="line"/>
      <point x="12" y="454" type="line"/>
      <point x="74" y="478"/>
      <point x="147" y="490"/>
      <point x="237" y="490" type="curve" smooth="yes"/>
      <point x="280" y="490"/>
      <point x="320" y="485"/>
      <point x="355" y="479" type="curve"/>
      <point x="392" y="485"/>
      <point x="431" y="490"/>
      <point x="475" y="490" type="curve" smooth="yes"/>
      <point x="564" y="490"/>
      <point x="636" y="478"/>
      <point x="700" y="454" type="curve"/>
      <point x="700" y="191" type="line"/>
      <point x="461" y="191" type="line"/>
      <point x="461" y="95" type="line"/>
      <point x="465" y="93"/>
      <point x="470" y="93"/>
      <point x="475" y="93" type="curve" smooth="yes"/>
      <point x="479" y="93"/>
      <point x="484" y="93"/>
      <point x="488" y="95" type="curve"/>
      <point x="488" y="177" type="line"/>
      <point x="700" y="177" type="line"/>
    </contour>
    <contour>
      <point x="488" y="280" type="curve"/>
      <point x="488" y="385" type="line"/>
      <point x="484" y="386"/>
      <point x="479" y="387"/>
      <point x="475" y="387" type="curve" smooth="yes"/>
      <point x="470" y="387"/>
      <point x="465" y="386"/>
      <point x="461" y="385" type="curve"/>
      <point x="461" y="280" type="line"/>
      <point x="462" y="280"/>
      <point x="487" y="280"/>
    </contour>
    <contour>
      <point x="250" y="91" type="curve"/>
      <point x="250" y="193" type="line"/>
      <point x="246" y="194"/>
      <point x="241" y="195"/>
      <point x="237" y="195" type="curve" smooth="yes"/>
      <point x="232" y="195"/>
      <point x="227" y="194"/>
      <point x="223" y="193" type="curve"/>
      <point x="223" y="91" type="line"/>
      <point x="227" y="89"/>
      <point x="232" y="89"/>
      <point x="237" y="89" type="curve" smooth="yes"/>
      <point x="241" y="89"/>
      <point x="246" y="89"/>
    </contour>
  </outline>
</glyph>
<glyph name="ccedilla" format="1">
  <advance width="473"/>
  <unicode hex="00E7"/>
  <outline>
    <contour>
      <point x="462" y="26" type="line"/>
      <point x="420" y="11"/>
      <point x="374" y="0"/>
      <point x="321" y="-6" type="curve"/>
      <point x="321" y="-116" type="line"/>
      <point x="259" y="-136"/>
      <point x="195" y="-146"/>
      <point x="118" y="-146" type="curve" smooth="yes"/>
      <point x="99" y="-146" type="line"/>
      <point x="99" y="-29" type="line"/>
      <point x="121" y="-29" type="line" smooth="yes"/>
      <point x="131" y="-29"/>
      <point x="144" y="-29"/>
      <point x="151" y="-27" type="curve"/>
      <point x="151" y="-6" type="line"/>
      <point x="99" y="0"/>
      <point x="53" y="11"/>
      <point x="12" y="26" type="curve"/>
      <point x="12" y="454" type="line"/>
      <point x="74" y="478"/>
      <point x="147" y="490"/>
      <point x="237" y="490" type="curve" smooth="yes"/>
      <point x="326" y="490"/>
      <point x="398" y="478"/>
      <point x="462" y="454" type="curve"/>
      <point x="462" y="250" type="line"/>
      <point x="250" y="250" type="line"/>
      <point x="250" y="361" type="line"/>
      <point x="246" y="362"/>
      <point x="241" y="363"/>
      <point x="237" y="363" type="curve" smooth="yes"/>
      <point x="232" y="363"/>
      <point x="227" y="362"/>
      <point x="223" y="361" type="curve"/>
      <point x="223" y="119" type="line"/>
      <point x="227" y="118"/>
      <point x="232" y="117"/>
      <point x="237" y="117" type="curve" smooth="yes"/>
      <point x="241" y="117"/>
      <point x="246" y="118"/>
      <point x="250" y="119" type="curve"/>
      <point x="250" y="231" type="line"/>
      <point x="462" y="231" type="line"/>
    </contour>
  </outline>
</glyph>
<glyph name="eth" format="1">
  <advance width="474"/>
  <unicode hex="00F0"/>
  <outline>
    <contour>
      <point x="462" y="26" type="line"/>
      <point x="398" y="2"/>
      <point x="325" y="-10"/>
      <point x="237" y="-10" type="curve" smooth="yes"/>
      <point x="147" y="-10"/>
      <point x="74" y="3"/>
      <point x="12" y="26" type="curve"/>
      <point x="12" y="449" type="line"/>
      <point x="68" y="474"/>
      <point x="135" y="485"/>
      <point x="203" y="485" type="curve" smooth="yes"/>
      <point x="222" y="485"/>
      <point x="239" y="483"/>
      <point x="249" y="481" type="curve"/>
      <point x="249" y="533" type="line"/>
      <point x="131" y="533" type="line"/>
      <point x="131" y="674" type="line"/>
      <point x="249" y="674" type="line"/>
      <point x="249" y="720" type="line"/>
      <point x="462" y="720" type="line"/>
      <point x="462" y="674" type="line"/>
      <point x="462" y="674" type="line"/>
      <point x="462" y="533" type="line"/>
      <point x="462" y="533" type="line"/>
    </contour>
    <contour>
      <point x="250" y="119" type="curve"/>
      <point x="250" y="356" type="line"/>
      <point x="246" y="357"/>
      <point x="241" y="358"/>
      <point x="237" y="358" type="curve" smooth="yes"/>
      <point x="232" y="358"/>
      <point x="228" y="357"/>
      <point x="223" y="356" type="curve"/>
      <point x="223" y="119" type="line"/>
      <point x="228" y="118"/>
      <point x="232" y="117"/>
      <point x="237" y="117" type="curve" smooth="yes"/>
      <point x="241" y="117"/>
      <point x="246" y="118"/>
    </contour>
  </outline>
</glyph>
<glyph name="oslash" format="1">
  <advance width="473"/>
  <unicode hex="00F8"/>
  <outline>
    <contour>
      <point x="462" y="26" type="line"/>
      <point x="408" y="6"/>
      <point x="346" y="-6"/>
      <point x="273" y="-9" type="curve"/>
      <point x="273" y="-9" type="line"/>
      <point x="256" y="-73" type="line"/>
      <point x="14" y="-73" type="line"/>
      <point x="40" y="16" type="line"/>
      <point x="30" y="20"/>
      <point x="21" y="23"/>
      <point x="12" y="26" type="curve"/>
      <point x="12" y="454" type="line"/>
      <point x="66" y="475"/>
      <point x="127" y="486"/>
      <point x="201" y="489" type="curve"/>
      <point x="201" y="489" type="line"/>
      <point x="218" y="550" type="line"/>
      <point x="459" y="550" type="line"/>
      <point x="434" y="464" type="line"/>
      <point x="443" y="460"/>
      <point x="453" y="457"/>
      <point x="462" y="454" type="curve"/>
    </contour>
    <contour>
      <point x="250" y="119" type="curve"/>
      <point x="250" y="361" type="line"/>
      <point x="246" y="362"/>
      <point x="241" y="363"/>
      <point x="237" y="363" type="curve" smooth="yes"/>
      <point x="232" y="363"/>
      <point x="227" y="362"/>
      <point x="223" y="361" type="curve"/>
      <point x="223" y="119" type="line"/>
      <point x="227" y="118"/>
      <point x="232" y="117"/>
      <point x="237" y="117" type="curve" smooth="yes"/>
      <point x="241" y="117"/>
      <point x="246" y="118"/>
    </contour>
  </outline>
</glyph>
<glyph name="thorn" format="1">
  <advance width="474"/>
  <unicode hex="00FE"/>
  <outline>
    <contour>
      <point x="462" y="31" type="line"/>
      <point x="405" y="6"/>
      <point x="338" y="-5"/>
      <point x="271" y="-5" type="curve" smooth="yes"/>
      <point x="252" y="-5"/>
      <point x="235" y="-3"/>
      <point x="225" y="-1" type="curve"/>
      <point x="225" y="-175" type="line"/>
      <point x="12" y="-175" type="line"/>
      <point x="12" y="720" type="line"/>
      <point x="225" y="720" type="line"/>
      <point x="225" y="481" type="line"/>
      <point x="235" y="483"/>
      <point x="252" y="485"/>
      <point x="271" y="485" type="curve" smooth="yes"/>
      <point x="338" y="485"/>
      <point x="405" y="474"/>
      <point x="462" y="449" type="curve"/>
    </contour>
    <contour>
      <point x="251" y="124" type="curve"/>
      <point x="251" y="356" type="line"/>
      <point x="246" y="357"/>
      <point x="242" y="358"/>
      <point x="237" y="358" type="curve" smooth="yes"/>
      <point x="232" y="358"/>
      <point x="229" y="357"/>
      <point x="224" y="356" type="curve"/>
      <point x="224" y="124" type="line"/>
      <point x="228" y="123"/>
      <point x="232" y="122"/>
      <point x="237" y="122" type="curve" smooth="yes"/>
      <point x="242" y="122"/>
      <point x="246" y="123"/>
    </contour>
  </outline>
</glyph>
<glyph name="dotlessi" format="1">
  <advance width="240"/>
  <unicode hex="0131"/>
  <outline>
    <contour>
      <point x="227" y="0" type="line"/>
      <point x="12" y="0" type="line"/>
      <point x="12" y="480" type="line"/>
      <point x="227" y="480" type="line"/>
    </contour>
  </outline>
</glyph>
<glyph name="Lslash" format="1">
  <advance width="439"/>
  <unicode hex="0141"/>
  <outline>
    <contour>
      <point x="428" y="0" type="line"/>
      <point x="33" y="0" type="line"/>
      <point x="33" y="263" type="line"/>
      <point x="3" y="255" type="line"/>
      <point x="3" y="439" type="line"/>
      <point x="33" y="446" type="line"/>
      <point x="33" y="720" type="line"/>
      <point x="285" y="720" type="line"/>
      <point x="285" y="509" type="line"/>
      <point x="350" y="525" type="line"/>
      <point x="350" y="341" type="line"/>
      <point x="285" y="325" type="line"/>
      <point x="285" y="182" type="line"/>
      <point x="428" y="182" type="line"/>
    </contour>
  </outline>
</glyph>
<glyph name="lslash" format="1">
  <advance width="280"/>
  <unicode hex="0142"/>
  <outline>
    <contour>
      <point x="276" y="308" type="line"/>
      <point x="247" y="301" type="line"/>
      <point x="247" y="0" type="line"/>
      <point x="32" y="0" type="line"/>
      <point x="32" y="247" type="line"/>
      <point x="3" y="240" type="line"/>
      <point x="3" y="424" type="line"/>
      <point x="32" y="431" type="line"/>
      <point x="32" y="720" type="line"/>
      <point x="247" y="720" type="line"/>
      <point x="247" y="484" type="line"/>
      <point x="276" y="491" type="line"/>
    </contour>
  </outline>
</glyph>
<glyph name="OE" format="1">
  <advance width="874"/>
  <unicode hex="0152"/>
  <outline>
    <contour>
      <point x="859" y="31" type="line"/>
      <point x="784" y="4"/>
      <point x="682" y="-10"/>
      <point x="585" y="-10" type="curve" smooth="yes"/>
      <point x="536" y="-10"/>
      <point x="477" y="-4"/>
      <point x="437" y="5" type="curve"/>
      <point x="396" y="-4"/>
      <point x="339" y="-10"/>
      <point x="290" y="-10" type="curve" smooth="yes"/>
      <point x="194" y="-11"/>
      <point x="91" y="4"/>
      <point x="15" y="31" type="curve"/>
      <point x="15" y="689" type="line"/>
      <point x="90" y="716"/>
      <point x="193" y="730"/>
      <point x="290" y="730" type="curve" smooth="yes"/>
      <point x="339" y="730"/>
      <point x="397" y="724"/>
      <point x="438" y="714" type="curve"/>
      <point x="478" y="724"/>
      <point x="536" y="730"/>
      <point x="585" y="730" type="curve" smooth="yes"/>
      <point x="681" y="730"/>
      <point x="783" y="717"/>
      <point x="859" y="689" type="curve"/>
      <point x="859" y="456" type="line"/>
      <point x="604" y="456" type="line"/>
      <point x="604" y="581" type="line"/>
      <point x="597" y="583"/>
      <point x="591" y="583"/>
      <point x="584" y="583" type="curve" smooth="yes"/>
      <point x="578" y="583"/>
      <point x="573" y="583"/>
      <point x="565" y="581" type="curve"/>
      <point x="565" y="439" type="line"/>
      <point x="839" y="439" type="line"/>
      <point x="839" y="286" type="line"/>
      <point x="565" y="286" type="line"/>
      <point x="565" y="139" type="line"/>
      <point x="572" y="138"/>
      <point x="578" y="137"/>
      <point x="584" y="137" type="curve" smooth="yes"/>
      <point x="591" y="137"/>
      <point x="597" y="138"/>
      <point x="604" y="139" type="curve"/>
      <point x="604" y="269" type="line"/>
      <point x="859" y="269" type="line"/>
    </contour>
    <contour>
      <point x="309" y="146" type="curve"/>
      <point x="309" y="574" type="line"/>
      <point x="302" y="575"/>
      <point x="296" y="575"/>
      <point x="290" y="575" type="curve" smooth="yes"/>
      <point x="283" y="575"/>
      <point x="277" y="575"/>
      <point x="270" y="574" type="curve"/>
      <point x="270" y="146" type="line"/>
      <point x="277" y="145"/>
      <point x="283" y="145"/>
      <point x="290" y="145" type="curve" smooth="yes"/>
      <point x="296" y="145"/>
      <point x="302" y="145"/>
    </contour>
  </outline>
</glyph>
<glyph name="oe" format="1">
  <advance width="711"/>
  <unicode hex="0153"/>
  <outline>
    <contour>
      <point x="700" y="26" type="line"/>
      <point x="637" y="3"/>
      <point x="564" y="-10"/>
      <point x="475" y="-10" type="curve" smooth="yes"/>
      <point x="432" y="-10"/>
      <point x="392" y="-4"/>
      <point x="355" y="1" type="curve"/>
      <point x="319" y="-4"/>
      <point x="280" y="-10"/>
      <point x="237" y="-10" type="curve" smooth="yes"/>
      <point x="148" y="-10"/>
      <point x="75" y="2"/>
      <point x="12" y="26" type="curve"/>
      <point x="12" y="454" type="line"/>
      <point x="74" y="478"/>
      <point x="147" y="490"/>
      <point x="237" y="490" type="curve" smooth="yes"/>
      <point x="280" y="490"/>
      <point x="319" y="485"/>
      <point x="356" y="479" type="curve"/>
      <point x="392" y="485"/>
      <point x="431" y="490"/>
      <point x="475" y="490" type="curve" smooth="yes"/>
      <point x="564" y="490"/>
      <point x="636" y="478"/>
      <point x="700" y="454" type="curve"/>
      <point x="700" y="191" type="line"/>
      <point x="461" y="191" type="line"/>
      <point x="461" y="104" type="line"/>
      <point x="465" y="102"/>
      <point x="470" y="102"/>
      <point x="475" y="102" type="curve" smooth="yes"/>
      <point x="479" y="102"/>
      <point x="484" y="102"/>
      <point x="488" y="104" type="curve"/>
      <point x="488" y="177" type="line"/>
      <point x="700" y="177" type="line"/>
    </contour>
    <contour>
      <point x="488" y="280" type="curve"/>
      <point x="488" y="385" type="line"/>
      <point x="484" y="386"/>
      <point x="479" y="387"/>
      <point x="475" y="387" type="curve" smooth="yes"/>
      <point x="470" y="387"/>
      <point x="465" y="386"/>
      <point x="461" y="385" type="curve"/>
      <point x="461" y="280" type="line"/>
      <point x="462" y="280"/>
      <point x="487" y="280"/>
    </contour>
    <contour>
      <point x="250" y="118" type="curve"/>
      <point x="250" y="368" type="line"/>
      <point x="246" y="369"/>
      <point x="241" y="369"/>
      <point x="237" y="369" type="curve" smooth="yes"/>
      <point x="232" y="369"/>
      <point x="227" y="369"/>
      <point x="223" y="368" type="curve"/>
      <point x="223" y="118" type="line"/>
      <point x="227" y="117"/>
      <point x="232" y="117"/>
      <point x="237" y="117" type="curve" smooth="yes"/>
      <point x="241" y="117"/>
      <point x="246" y="117"/>
    </contour>
  </outline>
</glyph>
<glyph name="florin" format="1">
  <advance width="300"/>
  <unicode hex="0192"/>
  <outline>
    <contour>
      <point x="293" y="589" type="line"/>
      <point x="268" y="589" type="line" smooth="yes"/>
      <point x="258" y="589"/>
      <point x="248" y="589"/>
      <point x="240" y="587" type="curve"/>
      <point x="240" y="480" type="line"/>
      <point x="289" y="480" type="line"/>
      <point x="289" y="343" type="line"/>
      <point x="240" y="343" type="line"/>
      <point x="240" y="-148" type="line"/>
      <point x="177" y="-168"/>
      <point x="114" y="-177"/>
      <point x="36" y="-177" type="curve" smooth="yes"/>
      <point x="-13" y="-177" type="line"/>
      <point x="-13" y="-44" type="line"/>
      <point x="-3" y="-44" type="line" smooth="yes"/>
      <point x="7" y="-44"/>
      <point x="17" y="-44"/>
      <point x="25" y="-42" type="curve"/>
      <point x="25" y="343" type="line"/>
      <point x="7" y="343" type="line"/>
      <point x="7" y="480" type="line"/>
      <point x="25" y="480" type="line"/>
      <point x="25" y="693" type="line"/>
      <point x="87" y="713"/>
      <point x="151" y="722"/>
      <point x="228" y="722" type="curve" smooth="yes"/>
      <point x="293" y="722" type="line"/>
    </contour>
  </outline>
</glyph>
<glyph name="circumflex" format="1">
  <advance width="470"/>
  <unicode hex="02C6"/>
  <outline>
    <contour>
      <point x="440" y="507" type="line"/>
      <point x="264" y="507" type="line"/>
      <point x="235" y="600" type="line"/>
      <point x="205" y="507" type="line"/>
      <point x="30" y="507" type="line"/>
      <point x="112" y="692" type="line"/>
      <point x="358" y="692" type="line"/>
    </contour>
  </outline>
</glyph>
<glyph name="caron" format="1">
  <advance width="470"/>
  <unicode hex="02C7"/>
  <outline>
    <contour>
      <point x="440" y="692" type="line"/>
      <point x="358" y="507" type="line"/>
      <point x="112" y="507" type="line"/>
      <point x="30" y="692" type="line"/>
      <point x="205" y="692" type="line"/>
      <point x="235" y="599" type="line"/>
      <point x="264" y="692" type="line"/>
    </contour>
  </outline>
</glyph>
<glyph name="breve" format="1">
  <advance width="470"/>
  <unicode hex="02D8"/>
  <outline>
    <contour>
      <point x="458" y="536" type="line"/>
      <point x="396" y="517"/>
      <point x="324" y="507"/>
      <point x="235" y="507" type="curve" smooth="yes"/>
      <point x="146" y="507"/>
      <point x="74" y="517"/>
      <point x="11" y="536" type="curve"/>
      <point x="11" y="692" type="line"/>
      <point x="216" y="692" type="line"/>
      <point x="216" y="624" type="line"/>
      <point x="222" y="623"/>
      <point x="228" y="622"/>
      <point x="235" y="622" type="curve" smooth="yes"/>
      <point x="242" y="622"/>
      <point x="247" y="623"/>
      <point x="253" y="624" type="curve"/>
      <point x="253" y="692" type="line"/>
      <point x="458" y="692" type="line"/>
    </contour>
  </outline>
</glyph>
<glyph name="dotaccent" format="1">
  <advance width="470"/>
  <unicode hex="02D9"/>
  <outline>
    <contour>
      <point x="339" y="507" type="line"/>
      <point x="131" y="507" type="line"/>
      <point x="131" y="692" type="line"/>
      <point x="339" y="692" type="line"/>
    </contour>
  </outline>
</glyph>
<glyph name="ring" format="1">
  <advance width="470"/>
  <unicode hex="02DA"/>
  <outline>
    <contour>
      <point x="434" y="533" type="line"/>
      <point x="378" y="516"/>
      <point x="314" y="507"/>
      <point x="235" y="507" type="curve" smooth="yes"/>
      <point x="156" y="507"/>
      <point x="92" y="516"/>
      <point x="36" y="533" type="curve"/>
      <point x="36" y="695" type="line"/>
      <point x="92" y="712"/>
      <point x="156" y="721"/>
      <point x="235" y="721" type="curve" smooth="yes"/>
      <point x="314" y="721"/>
      <point x="378" y="712"/>
      <point x="434" y="695" type="curve"/>
    </contour>
    <contour>
      <point x="253" y="589" type="curve"/>
      <point x="253" y="639" type="line"/>
      <point x="248" y="640"/>
      <point x="242" y="641"/>
      <point x="235" y="641" type="curve" smooth="yes"/>
      <point x="228" y="641"/>
      <point x="222" y="640"/>
      <point x="216" y="639" type="curve"/>
      <point x="216" y="589" type="line"/>
      <point x="222" y="588"/>
      <point x="228" y="587"/>
      <point x="235" y="587" type="curve" smooth="yes"/>
      <point x="242" y="587"/>
      <point x="248" y="588"/>
    </contour>
  </outline>
</glyph>
<glyph name="ogonek" format="1">
  <advance width="470"/>
  <unicode hex="02DB"/>
  <outline>
    <contour>
      <point x="372" y="-146" type="line"/>
      <point x="353" y="-146" type="line" smooth="yes"/>
      <point x="276" y="-146"/>
      <point x="212" y="-136"/>
      <point x="150" y="-116" type="curve"/>
      <point x="150" y="10" type="line"/>
      <point x="320" y="10" type="line"/>
      <point x="320" y="-27" type="line"/>
      <point x="327" y="-29"/>
      <point x="340" y="-29"/>
      <point x="350" y="-29" type="curve" smooth="yes"/>
      <point x="372" y="-29" type="line"/>
    </contour>
  </outline>
</glyph>
<glyph name="tilde" format="1">
  <advance width="470"/>
  <unicode hex="02DC"/>
  <outline>
    <contour>
      <point x="445" y="692" type="line"/>
      <point x="425" y="507" type="line"/>
      <point x="275" y="507" type="line"/>
      <point x="184" y="552" type="line"/>
      <point x="179" y="507" type="line"/>
      <point x="25" y="507" type="line"/>
      <point x="45" y="692" type="line"/>
      <point x="194" y="692" type="line"/>
      <point x="285" y="647" type="line"/>
      <point x="290" y="692" type="line"/>
    </contour>
  </outline>
</glyph>
<glyph name="hungarumlaut" format="1">
  <advance width="470"/>
  <unicode hex="02DD"/>
  <outline>
    <contour>
      <point x="480" y="692" type="line"/>
      <point x="390" y="507" type="line"/>
      <point x="204" y="507" type="line"/>
      <point x="289" y="692" type="line"/>
    </contour>
    <contour>
      <point x="262" y="692" type="line"/>
      <point x="178" y="507" type="line"/>
      <point x="-10" y="507" type="line"/>
      <point x="70" y="692" type="line"/>
    </contour>
  </outline>
</glyph>
<glyph name="emdash" format="1">
  <advance width="429"/>
  <unicode hex="2014"/>
  <outline>
    <contour>
      <point x="423" y="214" type="line"/>
      <point x="6" y="214" type="line"/>
      <point x="6" y="395" type="line"/>
      <point x="423" y="395" type="line"/>
    </contour>
  </outline>
</glyph>
<glyph name="quoteleft" format="1">
  <advance width="271"/>
  <unicode hex="2018"/>
  <unicode hex="02BB"/>
  <outline>
    <contour>
      <point x="264" y="390" type="line"/>
      <point x="34" y="390" type="line"/>
      <point x="7" y="720" type="line"/>
      <point x="237" y="720" type="line"/>
    </contour>
  </outline>
</glyph>
<glyph name="quoteright" format="1">
  <advance width="271"/>
  <unicode hex="2019"/>
  <unicode hex="02BC"/>
  <outline>
    <contour>
      <point x="264" y="720" type="line"/>
      <point x="236" y="390" type="line"/>
      <point x="7" y="390" type="line"/>
      <point x="34" y="720" type="line"/>
    </contour>
  </outline>
</glyph>
<glyph name="quotesinglbase" format="1">
  <advance width="271"/>
  <unicode hex="201A"/>
  <outline>
    <contour>
      <point x="261" y="194" type="line"/>
      <point x="233" y="-107" type="line"/>
      <point x="4" y="-107" type="line"/>
      <point x="31" y="194" type="line"/>
    </contour>
  </outline>
</glyph>
<glyph name="quotedblleft" format="1">
  <advance width="525"/>
  <unicode hex="201C"/>
  <outline>
    <contour>
      <point x="518" y="390" type="line"/>
      <point x="289" y="390" type="line"/>
      <point x="262" y="720" type="line"/>
      <point x="491" y="720" type="line"/>
    </contour>
    <contour>
      <point x="263" y="390" type="line"/>
      <point x="34" y="390" type="line"/>
      <point x="7" y="720" type="line"/>
      <point x="236" y="720" type="line"/>
    </contour>
  </outline>
</glyph>
<glyph name="quotedblright" format="1">
  <advance width="525"/>
  <unicode hex="201D"/>
  <outline>
    <contour>
      <point x="518" y="720" type="line"/>
      <point x="490" y="390" type="line"/>
      <point x="262" y="390" type="line"/>
      <point x="289" y="720" type="line"/>
    </contour>
    <contour>
      <point x="263" y="720" type="line"/>
      <point x="235" y="390" type="line"/>
      <point x="7" y="390" type="line"/>
      <point x="34" y="720" type="line"/>
    </contour>
  </outline>
</glyph>
<glyph name="quotedblbase" format="1">
  <advance width="525"/>
  <unicode hex="201E"/>
  <outline>
    <contour>
      <point x="515" y="194" type="line"/>
      <point x="487" y="-107" type="line"/>
      <point x="259" y="-107" type="line"/>
      <point x="286" y="194" type="line"/>
    </contour>
    <contour>
      <point x="260" y="194" type="line"/>
      <point x="232" y="-107" type="line"/>
      <point x="4" y="-107" type="line"/>
      <point x="31" y="194" type="line"/>
    </contour>
  </outline>
</glyph>
<glyph name="dagger" format="1">
  <advance width="368"/>
  <unicode hex="2020"/>
  <outline>
    <contour>
      <point x="362" y="343" type="line"/>
      <point x="309" y="343" type="line"/>
      <point x="309" y="0" type="line"/>
      <point x="58" y="0" type="line"/>
      <point x="58" y="343" type="line"/>
      <point x="6" y="343" type="line"/>
      <point x="6" y="515" type="line"/>
      <point x="58" y="515" type="line"/>
      <point x="58" y="720" type="line"/>
      <point x="309" y="720" type="line"/>
      <point x="309" y="515" type="line"/>
      <point x="362" y="515" type="line"/>
    </contour>
  </outline>
</glyph>
<glyph name="daggerdbl" format="1">
  <advance width="368"/>
  <unicode hex="2021"/>
  <outline>
    <contour>
      <point x="362" y="149" type="line"/>
      <point x="307" y="149" type="line"/>
      <point x="307" y="0" type="line"/>
      <point x="61" y="0" type="line"/>
      <point x="61" y="149" type="line"/>
      <point x="6" y="149" type="line"/>
      <point x="6" y="311" type="line"/>
      <point x="61" y="311" type="line"/>
      <point x="61" y="367" type="line"/>
      <point x="6" y="367" type="line"/>
      <point x="6" y="530" type="line"/>
      <point x="61" y="530" type="line"/>
      <point x="61" y="720" type="line"/>
      <point x="307" y="720" type="line"/>
      <point x="307" y="530" type="line"/>
      <point x="362" y="530" type="line"/>
      <point x="362" y="367" type="line"/>
      <point x="307" y="367" type="line"/>
      <point x="307" y="311" type="line"/>
      <point x="362" y="311" type="line"/>
    </contour>
  </outline>
</glyph>
<glyph name="bullet" format="1">
  <advance width="473"/>
  <unicode hex="2022"/>
  <outline>
    <contour>
      <point x="462" y="166" type="line"/>
      <point x="399" y="143"/>
      <point x="326" y="130"/>
      <point x="237" y="130" type="curve" smooth="yes"/>
      <point x="148" y="130"/>
      <point x="75" y="143"/>
      <point x="12" y="166" type="curve"/>
      <point x="12" y="563" type="line"/>
      <point x="74" y="587"/>
      <point x="147" y="600"/>
      <point x="237" y="600" type="curve" smooth="yes"/>
      <point x="326" y="600"/>
      <point x="398" y="588"/>
      <point x="462" y="563" type="curve"/>
    </contour>
  </outline>
</glyph>
<glyph name="ellipsis" format="1">
  <advance width="753"/>
  <unicode hex="2026"/>
  <outline>
    <contour>
      <point x="742" y="0" type="line"/>
      <point x="513" y="0" type="line"/>
      <point x="513" y="194" type="line"/>
      <point x="742" y="194" type="line"/>
    </contour>
    <contour>
      <point x="491" y="0" type="line"/>
      <point x="262" y="0" type="line"/>
      <point x="262" y="194" type="line"/>
      <point x="491" y="194" type="line"/>
    </contour>
    <contour>
      <point x="240" y="0" type="line"/>
      <point x="11" y="0" type="line"/>
      <point x="11" y="194" type="line"/>
      <point x="240" y="194" type="line"/>
    </contour>
  </outline>
</glyph>
<glyph name="guilsinglleft" format="1">
  <advance width="301"/>
  <unicode hex="2039"/>
  <outline>
    <contour>
      <point x="289" y="-5" type="line"/>
      <point x="9" y="145" type="line"/>
      <point x="9" y="335" type="line"/>
      <point x="289" y="485" type="line"/>
      <point x="289" y="287" type="line"/>
      <point x="189" y="240" type="line"/>
      <point x="289" y="194" type="line"/>
    </contour>
  </outline>
</glyph>
<glyph name="guilsinglright" format="1">
  <advance width="301"/>
  <unicode hex="203A"/>
  <outline>
    <contour>
      <point x="292" y="145" type="line"/>
      <point x="12" y="-5" type="line"/>
      <point x="12" y="194" type="line"/>
      <point x="112" y="240" type="line"/>
      <point x="12" y="287" type="line"/>
      <point x="12" y="485" type="line"/>
      <point x="292" y="335" type="line"/>
    </contour>
  </outline>
</glyph>
<glyph name="Euro" format="1">
  <advance width="560"/>
  <unicode hex="20AC"/>
  <outline>
    <contour>
      <point x="15" y="31" type="curve"/>
      <point x="15" y="689" type="line"/>
      <point x="91" y="716"/>
      <point x="185" y="730"/>
      <point x="283" y="730" type="curve" smooth="yes"/>
      <point x="379" y="730"/>
      <point x="472" y="717"/>
      <point x="548" y="689" type="curve"/>
      <point x="548" y="519" type="line"/>
      <point x="301" y="519" type="line"/>
      <point x="301" y="581" type="line"/>
      <point x="294" y="583"/>
      <point x="289" y="583"/>
      <point x="281" y="583" type="curve" smooth="yes"/>
      <point x="275" y="583"/>
      <point x="269" y="583"/>
      <point x="262" y="581" type="curve"/>
      <point x="262" y="502" type="line"/>
      <point x="515" y="502" type="line"/>
      <point x="515" y="368" type="line"/>
      <point x="262" y="368" type="line"/>
      <point x="262" y="352" type="line"/>
      <point x="515" y="352" type="line"/>
      <point x="515" y="218" type="line"/>
      <point x="262" y="218" type="line"/>
      <point x="262" y="141" type="line"/>
      <point x="269" y="140"/>
      <point x="275" y="140"/>
      <point x="281" y="140" type="curve" smooth="yes"/>
      <point x="289" y="140"/>
      <point x="294" y="140"/>
      <point x="301" y="141" type="curve"/>
      <point x="301" y="201" type="line"/>
      <point x="548" y="201" type="line"/>
      <point x="548" y="31" type="line"/>
      <point x="473" y="4"/>
      <point x="380" y="-10"/>
      <point x="283" y="-10" type="curve" smooth="yes"/>
      <point x="185" y="-10"/>
      <point x="91" y="4"/>
    </contour>
  </outline>
</glyph>
<glyph name="uni2117" format="1">
  <advance width="676"/>
  <unicode hex="2117"/>
  <outline>
    <contour>
      <point x="660" y="36" type="line"/>
      <point x="574" y="4"/>
      <point x="454" y="-10"/>
      <point x="338" y="-10" type="curve" smooth="yes"/>
      <point x="221" y="-10"/>
      <point x="101" y="4"/>
      <point x="15" y="36" type="curve"/>
      <point x="15" y="684" type="line"/>
      <point x="101" y="716"/>
      <point x="221" y="730"/>
      <point x="338" y="730" type="curve" smooth="yes"/>
      <point x="454" y="730"/>
      <point x="574" y="716"/>
      <point x="660" y="684" type="curve"/>
    </contour>
    <contour>
      <point x="543" y="103" type="curve"/>
      <point x="543" y="617" type="line"/>
      <point x="475" y="634"/>
      <point x="401" y="640"/>
      <point x="338" y="640" type="curve" smooth="yes"/>
      <point x="275" y="640"/>
      <point x="202" y="634"/>
      <point x="133" y="617" type="curve"/>
      <point x="133" y="103" type="line"/>
      <point x="202" y="86"/>
      <point x="275" y="80"/>
      <point x="338" y="80" type="curve" smooth="yes"/>
      <point x="401" y="80"/>
      <point x="475" y="86"/>
    </contour>
    <contour>
      <point x="510" y="301" type="line"/>
      <point x="466" y="282"/>
      <point x="404" y="272"/>
      <point x="340" y="272" type="curve" smooth="yes"/>
      <point x="328" y="272" type="line"/>
      <point x="328" y="113" type="line"/>
      <point x="169" y="113" type="line"/>
      <point x="169" y="605" type="line"/>
      <point x="340" y="605" type="line" smooth="yes"/>
      <point x="404" y="605"/>
      <point x="465" y="595"/>
      <point x="510" y="577" type="curve"/>
    </contour>
    <contour>
      <point x="352" y="365" type="curve"/>
      <point x="352" y="516" type="line"/>
      <point x="348" y="518"/>
      <point x="344" y="518"/>
      <point x="340" y="518" type="curve" smooth="yes"/>
      <point x="339" y="518"/>
      <point x="327" y="518"/>
      <point x="327" y="518" type="curve"/>
      <point x="327" y="364" type="line"/>
      <point x="327" y="364"/>
      <point x="339" y="364"/>
      <point x="340" y="364" type="curve" smooth="yes"/>
      <point x="344" y="364"/>
      <point x="348" y="364"/>
    </contour>
  </outline>
</glyph>
<glyph name="trademark" format="1">
  <advance width="835"/>
  <unicode hex="2122"/>
  <outline>
    <contour>
      <point x="820" y="274" type="line"/>
      <point x="667" y="274" type="line"/>
      <point x="667" y="628" type="line"/>
      <point x="663" y="628"/>
      <point x="653" y="629"/>
      <point x="644" y="629" type="curve"/>
      <point x="644" y="274" type="line"/>
      <point x="493" y="274" type="line"/>
      <point x="493" y="629" type="line"/>
      <point x="483" y="629"/>
      <point x="474" y="628"/>
      <point x="469" y="628" type="curve"/>
      <point x="469" y="274" type="line"/>
      <point x="316" y="274" type="line"/>
      <point x="316" y="699" type="line"/>
      <point x="386" y="718"/>
      <point x="471" y="725"/>
      <point x="568" y="725" type="curve" smooth="yes"/>
      <point x="665" y="725"/>
      <point x="751" y="718"/>
      <point x="820" y="699" type="curve"/>
    </contour>
    <contour>
      <point x="294" y="607" type="line"/>
      <point x="230" y="607" type="line"/>
      <point x="230" y="274" type="line"/>
      <point x="70" y="274" type="line"/>
      <point x="70" y="607" type="line"/>
      <point x="5" y="607" type="line"/>
      <point x="5" y="720" type="line"/>
      <point x="294" y="720" type="line"/>
    </contour>
  </outline>
</glyph>
<glyph name="radical" format="1">
  <advance width="580"/>
  <unicode hex="221A"/>
  <outline>
    <contour>
      <point x="576" y="720" type="line"/>
      <point x="408" y="0" type="line"/>
      <point x="117" y="0" type="line"/>
      <point x="3" y="361" type="line"/>
      <point x="227" y="361" type="line"/>
      <point x="254" y="198" type="line"/>
      <point x="336" y="720" type="line"/>
    </contour>
  </outline>
</glyph>
<glyph name="apple" format="1">
  <advance width="536"/>
  <unicode hex="F8FF"/>
  <outline>
    <contour>
      <point x="521" y="453" type="line"/>
      <point x="285" y="453" type="line"/>
      <point x="285" y="581" type="line"/>
      <point x="279" y="583"/>
      <point x="273" y="583"/>
      <point x="267" y="583" type="curve" smooth="yes"/>
      <point x="261" y="583"/>
      <point x="256" y="583"/>
      <point x="250" y="581" type="curve"/>
      <point x="250" y="453" type="line"/>
      <point x="13" y="453" type="line"/>
      <point x="13" y="689" type="line"/>
      <point x="83" y="716"/>
      <point x="178" y="730"/>
      <point x="268" y="730" type="curve" smooth="yes"/>
      <point x="357" y="730"/>
      <point x="450" y="717"/>
      <point x="521" y="689" type="curve"/>
    </contour>
    <contour>
      <point x="502" y="284" type="line"/>
      <point x="321" y="284" type="line"/>
      <point x="321" y="284" type="line"/>
      <point x="214" y="284" type="line"/>
      <point x="214" y="284" type="line"/>
      <point x="32" y="284" type="line"/>
      <point x="32" y="436" type="line"/>
      <point x="214" y="436" type="line"/>
      <point x="214" y="436" type="line"/>
      <point x="321" y="436" type="line"/>
      <point x="321" y="436" type="line"/>
      <point x="502" y="436" type="line"/>
    </contour>
    <contour>
      <point x="521" y="31" type="line"/>
      <point x="450" y="3"/>
      <point x="357" y="-10"/>
      <point x="268" y="-10" type="curve" smooth="yes"/>
      <point x="178" y="-10"/>
      <point x="83" y="4"/>
      <point x="13" y="31" type="curve"/>
      <point x="13" y="267" type="line"/>
      <point x="250" y="267" type="line"/>
      <point x="250" y="139" type="line"/>
      <point x="256" y="137"/>
      <point x="261" y="137"/>
      <point x="267" y="137" type="curve" smooth="yes"/>
      <point x="273" y="137"/>
      <point x="279" y="137"/>
      <point x="285" y="139" type="curve"/>
      <point x="285" y="267" type="line"/>
      <point x="521" y="267" type="line"/>
    </contour>
  </outline>
</glyph>
<glyph name="fi" format="1">
  <advance width="535"/>
  <unicode hex="FB01"/>
  <outline>
    <contour>
      <point x="522" y="498" type="line"/>
      <point x="307" y="498" type="line"/>
      <point x="307" y="674" type="line"/>
      <point x="522" y="674" type="line"/>
    </contour>
    <contour>
      <point x="522" y="0" type="line"/>
      <point x="307" y="0" type="line"/>
      <point x="307" y="480" type="line"/>
      <point x="522" y="480" type="line"/>
    </contour>
    <contour>
      <point x="293" y="589" type="line"/>
      <point x="268" y="589" type="line" smooth="yes"/>
      <point x="258" y="589"/>
      <point x="248" y="589"/>
      <point x="240" y="587" type="curve"/>
      <point x="240" y="480" type="line"/>
      <point x="289" y="480" type="line"/>
      <point x="289" y="343" type="line"/>
      <point x="240" y="343" type="line"/>
      <point x="240" y="0" type="line"/>
      <point x="25" y="0" type="line"/>
      <point x="25" y="343" type="line"/>
      <point x="7" y="343" type="line"/>
      <point x="7" y="480" type="line"/>
      <point x="25" y="480" type="line"/>
      <point x="25" y="693" type="line"/>
      <point x="87" y="713"/>
      <point x="151" y="722"/>
      <point x="228" y="722" type="curve" smooth="yes"/>
      <point x="293" y="722" type="line"/>
    </contour>
  </outline>
</glyph>
<glyph name="registered" format="1">
  <advance width="676"/>
  <outline>
    <contour>
      <point x="660" y="36" type="line"/>
      <point x="574" y="4"/>
      <point x="454" y="-10"/>
      <point x="338" y="-10" type="curve" smooth="yes"/>
      <point x="221" y="-10"/>
      <point x="101" y="4"/>
      <point x="15" y="36" type="curve"/>
      <point x="15" y="684" type="line"/>
      <point x="101" y="716"/>
      <point x="221" y="730"/>
      <point x="338" y="730" type="curve" smooth="yes"/>
      <point x="454" y="730"/>
      <point x="574" y="716"/>
      <point x="660" y="684" type="curve"/>
    </contour>
    <contour>
      <point x="543" y="103" type="curve"/>
      <point x="543" y="617" type="line"/>
      <point x="475" y="634"/>
      <point x="401" y="640"/>
      <point x="338" y="640" type="curve" smooth="yes"/>
      <point x="275" y="640"/>
      <point x="202" y="634"/>
      <point x="133" y="617" type="curve"/>
      <point x="133" y="103" type="line"/>
      <point x="202" y="86"/>
      <point x="275" y="80"/>
      <point x="338" y="80" type="curve" smooth="yes"/>
      <point x="401" y="80"/>
      <point x="475" y="86"/>
    </contour>
    <contour>
      <point x="508" y="114" type="line"/>
      <point x="349" y="114" type="line"/>
      <point x="349" y="305" type="line"/>
      <point x="345" y="307"/>
      <point x="341" y="307"/>
      <point x="337" y="307" type="curve" smooth="yes"/>
      <point x="336" y="307"/>
      <point x="327" y="307"/>
      <point x="327" y="307" type="curve"/>
      <point x="327" y="114" type="line"/>
      <point x="168" y="114" type="line"/>
      <point x="168" y="606" type="line"/>
      <point x="338" y="606" type="line" smooth="yes"/>
      <point x="402" y="606"/>
      <point x="463" y="597"/>
      <point x="508" y="580" type="curve"/>
      <point x="508" y="370" type="line"/>
      <point x="493" y="365"/>
      <point x="465" y="361"/>
      <point x="437" y="358" type="curve"/>
      <point x="464" y="355"/>
      <point x="493" y="351"/>
      <point x="508" y="346" type="curve"/>
    </contour>
    <contour>
      <point x="350" y="389" type="curve"/>
      <point x="350" y="525" type="line"/>
      <point x="346" y="526"/>
      <point x="342" y="526"/>
      <point x="338" y="526" type="curve" smooth="yes"/>
      <point x="338" y="526"/>
      <point x="326" y="526"/>
      <point x="325" y="526" type="curve"/>
      <point x="325" y="387" type="line"/>
      <point x="326" y="387"/>
      <point x="338" y="387"/>
      <point x="338" y="387" type="curve" smooth="yes"/>
      <point x="342" y="387"/>
      <point x="347" y="388"/>
    </contour>
  </outline>
</glyph>
